<svg width="174" height="160" viewBox="0 0 174 160" fill="none" xmlns="http://www.w3.org/2000/svg">
<path d="M28.686 40.2758C29.7723 41.6319 31.7507 41.848 33.1043 40.76C34.4559 39.6701 34.6732 37.6871 33.5869 36.331C32.5006 34.9749 30.5222 34.7569 29.1686 35.8468C27.8151 36.9367 27.5978 38.9178 28.686 40.2758Z" fill="#FFEF66"/>
<path d="M94.0869 9.87272C94.8694 9.95759 95.5712 9.39239 95.6577 8.60922C95.7423 7.82604 95.179 7.12002 94.3965 7.03514C93.6159 6.94834 92.9122 7.51547 92.8276 8.29864C92.7411 9.08182 93.3063 9.78591 94.0869 9.87272Z" fill="#FFEF66"/>
<path d="M29.2627 87.1277C30.0433 87.2126 30.747 86.6474 30.8316 85.8642C30.9162 85.0811 30.3528 84.3751 29.5722 84.2902C28.7897 84.2053 28.086 84.7705 28.0014 85.5537C27.9149 86.3369 28.4802 87.0409 29.2627 87.1277Z" fill="#FFEF66"/>
<path d="M130.129 7.94175C131.017 9.05093 132.634 9.2284 133.74 8.3372C134.845 7.44793 135.022 5.82756 134.134 4.71838C133.246 3.61112 131.629 3.43365 130.523 4.32293C129.418 5.21413 129.241 6.8345 130.129 7.94175Z" fill="white"/>
<path d="M109.193 11.1014C109.837 11.9077 111.012 12.035 111.816 11.3888C112.619 10.7426 112.748 9.56394 112.102 8.75954C111.458 7.95322 110.283 7.8259 109.48 8.47212C108.676 9.11834 108.547 10.295 109.193 11.1014Z" fill="white"/>
<path d="M14.0912 84.3288C14.7353 85.1351 15.91 85.2644 16.7137 84.6162C17.5174 83.97 17.6462 82.7933 17.0002 81.987C16.3542 81.1826 15.1813 81.0533 14.3777 81.6995C13.574 82.3458 13.4452 83.5244 14.0912 84.3288Z" fill="white"/>
<path d="M12.2242 38.8677C12.8702 39.6721 14.0449 39.8013 14.8467 39.1532C15.6503 38.507 15.7792 37.3303 15.1351 36.524C14.4891 35.7196 13.3143 35.5903 12.5107 36.2385C11.707 36.8847 11.5801 38.0614 12.2242 38.8677Z" fill="white"/>
<path d="M66.3662 18.9082C68.037 19.0914 69.5386 17.8819 69.7232 16.2076C69.9039 14.5332 68.6984 13.0266 67.0276 12.8453C65.3568 12.662 63.8552 13.8696 63.6726 15.544C63.4899 17.2184 64.6973 18.7249 66.3662 18.9082Z" fill="white"/>
<mask id="mask0_194_5038" style="mask-type:luminance" maskUnits="userSpaceOnUse" x="116" y="0" width="4" height="3">
<path d="M116.82 0H119.774V2.71605H116.82V0Z" fill="white"/>
</mask>
<g mask="url(#mask0_194_5038)">
<path d="M117.503 2.0139C117.888 2.49422 118.587 2.56945 119.066 2.18558C119.545 1.79978 119.622 1.09762 119.237 0.619223C118.853 0.138899 118.153 0.0617388 117.674 0.447541C117.197 0.833343 117.118 1.53357 117.503 2.0139Z" fill="#FFEF66"/>
</g>
<path d="M6.78125 59.5082C7.86755 60.8662 9.84595 61.0822 11.1995 59.9923C12.5511 58.9044 12.7684 56.9213 11.6821 55.5653C10.5958 54.2072 8.61738 53.9912 7.26383 55.0811C5.91029 56.169 5.69303 58.1521 6.78125 59.5082Z" fill="white"/>
<path d="M81.5915 18.8928C81.976 19.3731 82.6759 19.4484 83.1546 19.0645C83.6334 18.6787 83.7103 17.9765 83.3257 17.4981C82.9412 17.0178 82.2414 16.9406 81.7626 17.3264C81.2839 17.7122 81.207 18.4125 81.5915 18.8928Z" fill="white"/>
<path d="M20.8918 73.8734C21.2763 74.3518 21.9762 74.429 22.4549 74.0432C22.9337 73.6593 23.0086 72.9571 22.6241 72.4768C22.2415 71.9984 21.5417 71.9213 21.0629 72.3071C20.5842 72.6909 20.5073 73.3931 20.8918 73.8734Z" fill="white"/>
<path d="M1.25178 72.7585C1.63439 73.2389 2.33423 73.316 2.81297 72.9302C3.29171 72.5444 3.36862 71.8442 2.98409 71.3639C2.59956 70.8835 1.89971 70.8064 1.4229 71.1922C0.942233 71.578 0.86725 72.2782 1.25178 72.7585Z" fill="#FFEF66"/>
<path d="M31.3816 71.6454C31.7661 72.1238 32.464 72.2009 32.9428 71.8151C33.4215 71.4293 33.4984 70.7291 33.1139 70.2488C32.7293 69.7685 32.0295 69.6932 31.5508 70.0771C31.072 70.4629 30.997 71.1651 31.3816 71.6454Z" fill="white"/>
<path d="M46.2495 27.5079L39.1318 25.2663C38.7377 25.1429 38.3166 25.3628 38.1936 25.7582C38.0686 26.1537 38.2878 26.5761 38.6838 26.6996C38.73 26.715 38.7819 26.7247 38.83 26.7305L46.2495 27.5079ZM46.3764 24.7629L39.6567 16.1633C39.401 15.8373 38.9319 15.7795 38.6069 16.036C38.282 16.2907 38.2243 16.7633 38.4781 17.0873C38.4993 17.1143 38.5243 17.1414 38.5473 17.1645L46.3764 24.7629ZM45.8938 17.2745C45.8765 17.2282 45.863 17.178 45.8553 17.1279C45.788 16.717 46.063 16.3312 46.4725 16.2637C46.8801 16.1961 47.2665 16.4739 47.3338 16.8829L48.5355 24.1745L45.8938 17.2745Z" fill="white"/>
<path d="M61.7115 143.96C61.7115 143.96 56.2589 140.123 48.178 136.385C40.099 132.646 25.2619 126.389 23.8218 127.087C23.8218 127.087 22.5837 130.596 42.46 139.687C59.4678 147.467 61.7115 143.96 61.7115 143.96Z" fill="#E6EAF5"/>
<path d="M19.1208 131.171C19.1208 131.171 20.0668 130.311 40.4392 139.749C48.3836 143.43 53.419 145.579 56.6164 146.946C61.1 148.862 61.1 149.481 61.1 149.481C61.1 149.481 51.9078 152.033 41.6524 147.527C31.3951 143.021 19.1208 131.171 19.1208 131.171Z" fill="#1A2636"/>
<path d="M112.456 77.4247C110.897 74.8032 108.505 74.8379 103.552 75.7658C99.7741 76.4737 80.5187 82.6408 73.876 85.5304C66.12 88.9023 54.8167 88.9583 53.7958 90.5767C53.7958 90.5767 48.5124 96.0821 33.9733 109.674C32.5524 112.527 25.8001 128.675 13.6797 152.211C13.6797 152.211 52.1692 157.675 53.3536 157.737C56.5606 149.477 60.775 138.76 62.8726 138.486C65.8758 138.094 80.3015 130.378 89.5802 124.444C90.7261 123.711 91.7855 122.695 92.7006 122.047C94.6521 120.667 95.8153 119.143 96.2325 118.52C96.7132 117.309 97.6688 116.829 97.7188 116.699C98.507 114.678 97.2939 112.448 97.2939 112.448C97.6611 112.247 99.5376 109.388 99.801 108.142C100.064 106.896 99.776 105.949 98.4167 103.501C97.0574 101.053 94.7483 100.837 94.7483 100.837C94.7483 100.837 95.8153 99.6026 96.6536 98.8194C97.4938 98.0362 96.6767 94.5582 95.1059 92.1431C93.5351 89.728 92.8525 91.0783 91.4971 91.52C90.2608 91.9232 87.621 92.8607 84.9101 94.4193C92.1604 89.7067 100.011 88.4124 107.205 85.2816C113.196 82.6774 113.832 79.7357 112.456 77.4247Z" fill="#FFC09E"/>
<path d="M98.2688 89.6914C98.2688 89.6914 101.976 90.6231 102.72 90.7987C103.464 90.9723 112.964 92.855 113.956 97.0062C114.948 101.157 103.564 99.6355 101.855 99.6914C100.145 99.7454 96.3346 95.7852 96.5942 94.4001C96.8537 93.017 98.2688 89.6914 98.2688 89.6914Z" fill="#FFC09E"/>
<path d="M56.1127 139.282C54.1804 134.89 53.9574 132.18 55.9358 134.765C57.8873 137.897 62.8362 138.519 62.8362 138.519C60.6617 139.034 54.3304 154.73 50.9754 157.367L44.1692 156.917C49.7641 152.971 56.7664 140.768 56.1127 139.282Z" fill="#F7AF8A"/>
<path d="M95.181 109.122C96.6845 107.263 97.3882 105.48 97.6208 104.767C97.6862 104.138 97.9035 103.646 98.115 103.287C91.8587 104.182 72.9359 102.519 63.2554 105.137L60.4637 88.8485L56.8337 89.3327L56.4088 88.2698C56.4088 88.2698 53.694 94.1745 55.7801 100.733C56.8299 104.034 57.2682 107.34 57.4144 110.131C57.4374 111.682 57.2644 116.916 57.1856 117.456L57.226 117.411C57.176 119.163 57.1875 120.338 57.3913 119.863C58.02 118.403 61.3289 116.786 61.8134 116.501C64.532 114.884 66.5373 116.707 69.9962 121.173C73.4666 125.65 74.0184 128.007 79.7883 130.303C80.3151 129.73 106.136 120.345 106.619 119.801C107.524 118.783 94.4754 109.996 95.181 109.122Z" fill="#F7AF8A"/>
<path d="M62.5015 114.306L104.511 109.352C106.199 109.144 107.399 107.606 107.193 105.914L97.238 24.323C97.0323 22.6312 95.4961 21.4295 93.8099 21.6359L51.8 26.5876C50.1138 26.794 48.9122 28.3334 49.1179 30.0251L59.0734 111.617C59.2791 113.308 60.8153 114.512 62.5015 114.306Z" fill="#1B1B1B"/>
<path d="M103.641 102.076C104.064 102.023 104.365 101.636 104.315 101.211L94.9675 24.6026C94.9156 24.1782 94.5291 23.8754 94.1061 23.9275L52.0962 28.8812C51.6732 28.9332 51.3714 29.319 51.4233 29.7434L60.7693 106.352C60.8212 106.777 61.2077 107.079 61.6306 107.029L103.641 102.076Z" fill="#E0F3FF"/>
<path d="M89.9301 24.4175L52.0981 28.8754C51.6751 28.9256 51.3713 29.3133 51.4233 29.7377L58.1352 84.6451L89.9301 24.4175Z" fill="#FAFDFF"/>
<path d="M58.5275 88.1095C59.7004 85.5343 61.0885 82.8934 61.9902 81.8055C63.1419 80.4204 67.3275 75.7021 67.7986 68.5802C68.1543 63.204 65.999 61.4525 63.6091 61.9386C62.2825 62.2087 61.0174 63.5628 59.9369 64.9729C59.4177 65.65 58.5756 67.5867 56.2915 69.7897L58.5275 88.1095Z" fill="#C8E5F7"/>
<path d="M56.5683 72.0621L72.7935 64.5968C74.4989 63.9487 76.3273 63.1597 75.6794 61.4526L68.2637 41.8866C67.6158 40.1775 65.7085 39.3191 64.0051 39.9692L53.1575 44.0992L56.5683 72.0621Z" fill="#E0F3FF"/>
<path d="M74.145 61.9327C74.793 63.6399 73.9355 65.5515 72.232 66.1996L36.7976 79.695C35.0941 80.3451 33.1868 79.4847 32.5408 77.7776L24.6618 56.9905C24.0138 55.2834 24.8694 53.3737 26.5748 52.7236L62.0093 39.2301C63.7127 38.5801 65.6181 39.4385 66.266 41.1476L74.145 61.9327Z" fill="#D6314F"/>
<path d="M26.8246 62.6967L68.4289 46.8518L66.8061 42.5713L25.2019 58.4162L26.8246 62.6967Z" fill="#1B1B1B"/>
<path d="M56.7992 58.0807L30.8204 67.9746L29.0535 63.3141L55.0323 53.4202L56.7992 58.0807Z" fill="#E0F3FF"/>
<path d="M43.5479 74.6912L37.4435 77.0157C37.0263 77.1738 36.561 76.9655 36.4034 76.5469L35.144 73.2232C34.9864 72.8085 35.194 72.3397 35.6112 72.1816L41.7156 69.8571C42.1329 69.6989 42.5981 69.9092 42.7558 70.3259L44.0151 73.6495C44.1728 74.0662 43.9651 74.5311 43.5479 74.6912Z" fill="#FE5268"/>
<path d="M94.1657 82.0564C94.2291 82.61 94.0696 83.1655 93.7235 83.6015C93.3774 84.0375 92.8717 84.3172 92.3199 84.3789L68.2657 87.0891C67.1178 87.2184 66.0815 86.3908 65.9508 85.2392L65.1875 78.4819C65.126 77.9283 65.2856 77.3727 65.6316 76.9368C65.9777 76.5008 66.4814 76.2211 67.0352 76.1594L91.0875 73.451C92.2353 73.3218 93.2717 74.1493 93.4024 75.299L94.1657 82.0564Z" fill="#FE5268"/>
<path d="M73.4357 80.8196L73.8452 80.7734C74.2259 80.729 74.5028 80.619 74.6758 80.4473C74.8489 80.2737 74.9181 80.0423 74.8835 79.7529C74.8508 79.4616 74.747 79.2552 74.572 79.1337C74.397 79.0141 74.1394 78.9736 73.801 79.0122L73.2357 79.0778L73.4357 80.8196ZM76.1332 79.5619C76.2062 80.1946 76.064 80.7 75.7102 81.0801C75.3545 81.462 74.8142 81.6935 74.0875 81.7784L73.5549 81.8401L73.7972 83.9273L72.5532 84.072L71.8745 78.202L73.7453 77.984C74.4566 77.903 75.0142 77.9917 75.4199 78.256C75.8256 78.5203 76.062 78.9562 76.1332 79.5619Z" fill="white"/>
<path d="M80.2879 80.7003C79.7477 79.4792 79.4439 78.7905 79.3766 78.6285C79.3074 78.4684 79.2574 78.343 79.2247 78.2485C79.1767 78.5996 79.0209 79.4773 78.7614 80.8777L80.2879 80.7003ZM81.2896 83.0575L80.7052 81.7111L78.5691 81.958L78.3057 83.4047L76.9675 83.5591L78.3538 77.4267L79.8727 77.2493L82.6278 82.9013L81.2896 83.0575Z" fill="white"/>
<path d="M84.789 79.1514L85.7311 76.5935L87.0693 76.4373L85.5408 80.249L85.8042 82.5329L84.5717 82.6776L84.3122 80.4322L81.9512 77.0314L83.297 76.8751L84.789 79.1514Z" fill="white"/>
<path d="M58.7965 63.314C59.877 61.9039 61.1441 60.5497 62.4688 60.2797C64.8586 59.7935 67.0139 61.5451 66.6582 66.9212C66.1872 74.0412 62.0016 78.7596 60.8499 80.1465C59.3233 81.9849 56.4086 88.2696 55.4934 91.1593C55.4934 91.1593 53.3592 89.6315 49.3947 104.244C48.2354 108.517 32.9657 113.956 33.8616 109.628C35.1556 103.38 39.4546 89.1357 42.7597 84.292C46.0628 79.4502 49.3851 72.2087 51.3424 71.0262C56.6566 67.8163 58.0563 64.2804 58.7965 63.314Z" fill="#FFC09E"/>
<path d="M62.4111 60.7947C62.4111 60.7947 63.4282 61.5644 63.0725 62.6253C62.7149 63.6843 61.6747 65.1677 60.7903 66.3059C59.904 67.444 58.6831 69.0836 57.6122 68.0921C56.5393 67.1006 62.4111 60.7947 62.4111 60.7947Z" fill="#F7AF8A"/>
<path d="M62.0477 60.4515C62.0477 60.4515 64.1991 61.4083 62.2822 63.5456C60.8249 65.1679 58.9118 68.752 58.0159 68.2755C57.118 67.7991 56.1221 67.1355 56.1221 67.1355C56.1221 67.1355 56.8469 65.2817 58.9734 62.8897C61.7554 59.7647 62.0477 60.4515 62.0477 60.4515Z" fill="#FFD5BF"/>
<path d="M56.603 103.848C55.1956 97.7412 52.3539 94.6143 52.8365 93.9063C54.49 91.4873 57.895 82.72 57.4816 81.8481C56.851 80.5286 57.6604 81.0494 59.5831 79.4908C61.5038 77.9322 64.5205 72.5714 65.5087 69.5776C66.7988 65.6694 66.2989 63.835 66.1739 62.4673C66.5892 63.5282 66.7873 64.9885 66.6584 66.9214C66.1874 74.0414 62.0018 78.7597 60.8501 80.1467C59.3235 81.985 56.7933 88.2119 56.9625 90.843C57.2375 95.1023 56.603 103.848 56.603 103.848Z" fill="#F7AF8A"/>
<path d="M33.8448 109.774C34.0255 107.845 38.8475 90.027 42.7601 84.2921C45.9632 79.5949 49.1914 72.6312 51.1678 71.1459C51.512 70.8874 53.923 69.593 56.1129 67.1316C56.1225 67.1355 53.7653 70.353 52.2099 71.6802C50.6545 73.0074 47.2591 79.4406 46.6746 82.0371C46.0882 84.6316 43.806 86.1999 42.5063 90.1042C41.4335 93.3295 38.1726 105.891 38.1784 110.689C38.1823 114.153 43.0196 119.605 42.3986 119.801C41.1874 120.181 36.8037 115.982 35.2194 117.456C33.3372 119.205 24.7122 148.605 17.0369 153.954L12.3745 145.106C24.7756 133.79 27.4827 122.812 33.8448 109.774Z" fill="#FFD2BA"/>
<mask id="mask1_194_5038" style="mask-type:luminance" maskUnits="userSpaceOnUse" x="14" y="126" width="49" height="34">
<path d="M14.4429 126.667H62.1861V160H14.4429V126.667Z" fill="white"/>
</mask>
<g mask="url(#mask1_194_5038)">
<path d="M37.6074 134.637C26.2676 128.675 23.822 127.087 23.822 127.087L14.6067 143.719L47.3802 159.938H54.1575L61.7116 143.96C60.4869 145.077 45.3422 138.706 37.6074 134.637Z" fill="#E0F3FF"/>
</g>
<mask id="mask2_194_5038" style="mask-type:luminance" maskUnits="userSpaceOnUse" x="0" y="131" width="62" height="29">
<path d="M0.25 131.111H61.2019V160H0.25V131.111Z" fill="white"/>
</mask>
<g mask="url(#mask2_194_5038)">
<path d="M19.1208 131.171L0.25 159.938H56.6471L61.1 149.481C56.9201 148.489 49.0488 146.392 40.1104 142.226C21.9433 133.757 19.1208 131.171 19.1208 131.171Z" fill="#1F2F42"/>
</g>
<path d="M55.8973 152.905C56.4741 153.675 56.3203 154.769 55.5531 155.349C54.7841 155.928 53.6939 155.774 53.1152 155.004C52.5384 154.234 52.6922 153.14 53.4594 152.562C54.2284 151.981 55.3186 152.135 55.8973 152.905Z" fill="#355070"/>
<mask id="mask3_194_5038" style="mask-type:luminance" maskUnits="userSpaceOnUse" x="50" y="156" width="5" height="4">
<path d="M50.3738 156.79H54.3114V160H50.3738V156.79Z" fill="white"/>
</mask>
<g mask="url(#mask3_194_5038)">
<path d="M51.3928 157.268C50.6257 157.847 50.4719 158.943 51.0506 159.711C51.114 159.795 51.1852 159.869 51.2582 159.938H53.6154C54.2653 159.336 54.3729 158.335 53.8307 157.614C53.2539 156.844 52.1619 156.69 51.3928 157.268Z" fill="#355070"/>
</g>
<path d="M88.9727 97.1779C87.077 95.7909 80.3515 90.9202 77.5271 89.7165C74.4855 88.4163 69.2059 85.7851 68.5157 87.3554C67.8331 88.9063 68.1196 90.7562 72.063 95.4128C74.2798 98.0363 78.7 102.024 81.3917 104.697L95.8692 102.99C92.5104 99.3596 90.6723 98.4221 88.9727 97.1779Z" fill="#C8E5F7"/>
<path d="M118.111 153.682C118.111 153.682 118.668 151.962 125.911 148.1C133.151 144.236 143.313 138.291 145.878 136.528C148.444 134.765 152.597 133.937 153.297 134.969C153.999 135.999 139.537 147.527 139.537 147.527C139.537 147.527 119.478 155.525 118.111 153.682Z" fill="#E6EAF5"/>
<path d="M106.955 109.876C103.304 106.674 92.6217 99.3768 89.93 97.4054C88.0343 96.0184 77.8077 87.4999 75.3121 85.7078C72.0128 83.3409 69.0885 84.4405 68.5155 87.3552C68.008 89.9343 71.8167 93.9949 75.0314 97.2549C78.1134 100.38 82.4548 104.886 84.8215 107.033C85.3214 107.486 90.4972 113.534 94.6521 118.067C97.388 121.051 98.7415 123.378 98.6223 124.141C98.3262 126.038 111.404 113.775 106.955 109.876Z" fill="#FFC09E"/>
<path d="M72.9552 92.1199C74.1357 91.1746 76.5506 89.0103 76.4006 88.2695C76.2141 87.3475 72.6072 84.4636 71.1153 85.4802C69.6252 86.4968 68.9715 87.5963 69.5002 89.155C69.7809 89.9864 70.5942 91.0975 71.396 91.7726C71.9247 92.2163 72.6707 92.3475 72.9552 92.1199Z" fill="#FFD5BF"/>
<path d="M125.315 158.74H143.155C143.255 158.694 143.355 158.648 143.453 158.598C150.53 155.141 160.226 151.804 157.756 147.328C157.756 147.328 151.111 135.243 150.486 134.282C149.861 133.324 149.427 130.174 148.79 125.264C148.156 120.355 143.238 109.732 140.779 104.171C139.089 100.345 138.281 97.0872 135.164 94.6547C133.111 93.0517 131.131 90.299 128.408 89.89C125.684 89.4792 123.369 89.4251 122.831 92.5366C122.831 92.5366 120.287 89.9807 115.94 91.8306C112.8 93.1655 112.341 94.8148 112.066 97.0042C112.066 97.0042 109.018 94.7994 106.248 95.9163C103.477 97.0312 102.316 98.1308 101.539 99.6971C100.762 101.263 102.406 105.839 102.406 105.839C102.406 105.839 98.8993 103.52 95.6212 106.19C93.7928 107.677 93.8351 108.681 93.6813 109.824C93.5967 110.459 94.5253 114.288 97.1401 119.188C97.4343 119.738 99.7838 127.618 105.707 135.343C111.41 142.78 114.852 146.993 118.435 149.959C119.156 150.556 122.796 155.382 125.315 158.74Z" fill="#FFC09E"/>
<path d="M128.139 89.6101C125.411 89.2359 123.096 89.2088 122.596 92.3261C122.596 92.3261 120.02 89.803 115.696 91.7088C112.575 93.0842 112.135 94.7374 111.887 96.9326C111.887 96.9326 108.815 94.7644 106.059 95.916C103.302 97.0676 102.153 98.1826 101.397 99.7586C100.899 100.794 101.258 104.379 102.135 105.723C102.737 107.006 104.262 107.642 105.3 109.145C105.356 107.016 98.486 98.5877 106.68 96.568C109.799 95.7983 115.253 102.629 114.857 101.68C112.414 95.8292 112.783 93.9581 117.157 92.2277C122.017 90.3065 125.43 98.2617 125.984 97.982C126.438 97.7544 123.461 91.8747 124.469 90.6652C125.411 89.5368 129.352 90.2794 129.758 90.2949C129.235 90.1 128.668 89.6815 128.139 89.6101Z" fill="#F7AF8A"/>
<path d="M144.395 137.666C142.953 138.6 147.7 137.626 149.419 138.939C150.557 139.809 158.182 152.94 160.026 155.953C160.832 154.119 161.599 151.219 160.807 149.825C160.807 149.825 151.222 134.91 150.586 133.957C150.18 133.349 150.003 131.925 149.401 129.765C149.401 129.765 149.105 134.622 144.395 137.666Z" fill="#F7AF8A"/>
<path d="M157.771 137.647C157.771 137.647 156.411 136.931 150.455 140.295C144.497 143.659 121.746 156.092 121.746 156.092C121.746 156.092 118.478 157.743 118.92 158.717C119.36 159.691 136.043 159.782 141.265 157.789C146.487 155.795 157.742 139.56 157.771 137.647Z" fill="#1A2636"/>
<mask id="mask4_194_5038" style="mask-type:luminance" maskUnits="userSpaceOnUse" x="117" y="134" width="48" height="26">
<path d="M117.805 134.568H164.071V160H117.805V134.568Z" fill="white"/>
</mask>
<g mask="url(#mask4_194_5038)">
<path d="M139.929 144.564C132.834 148.611 119.741 153.958 118.111 153.682L121.794 159.938H149.142L163.979 150.694L153.297 134.969C153.297 134.969 151.888 137.739 139.929 144.564Z" fill="#E0F3FF"/>
</g>
<mask id="mask5_194_5038" style="mask-type:luminance" maskUnits="userSpaceOnUse" x="118" y="137" width="56" height="23">
<path d="M118.789 137.575H173.75V159.938H118.789V137.575Z" fill="white"/>
</mask>
<g mask="url(#mask5_194_5038)">
<path d="M157.771 137.646C157.771 137.646 155.641 141.572 140.021 150.218C132.223 154.533 123.223 157.272 118.92 158.717L119.472 159.938H173.754L157.771 137.646Z" fill="#1F2F42"/>
</g>
<path d="M115.868 136.223C115.534 132.645 112.886 129.805 106.819 125.883C106.819 125.883 103.602 125.189 102.118 124.535C98.3743 122.89 92.6756 120.189 89.5839 118.198C86.4904 116.209 81.1993 115.185 77.6116 117.05C74.047 118.904 73.5471 120.785 73.6932 122.45C74.545 125.376 84.2563 127.938 86.948 129.506C89.6416 131.076 93.4331 136.165 100.766 141.821C106.384 146.153 114.89 146.402 117.47 147.527C117.77 142.199 116.19 139.67 115.868 136.223Z" fill="#FFC09E"/>
<path d="M81.7244 120.773C80.4612 120.021 78.1579 119.219 76.9659 118.827C76.5102 118.678 75.9411 118.831 75.8219 118.952C74.6087 120.199 74.1857 121.427 74.1626 122.38C73.7108 124.066 77.0639 125.523 80.5343 126.858C81.3495 126.298 83.4817 121.819 81.7244 120.773Z" fill="#FFD5BF"/>
<path d="M76.9658 118.827L81.7244 120.774C81.7244 120.774 79.7018 119.088 76.9658 118.827Z" fill="#F7AF8A"/>
<path d="M105.3 126.858C108.113 129.41 107.04 130.201 105.3 129.282C103.156 128.15 98.3359 122.812 98.3359 122.812C98.3359 122.812 104.617 126.238 105.3 126.858Z" fill="#F7AF8A"/>
<path d="M96.5537 37.7333C94.7906 37.5655 92.9641 37.988 91.3895 39.0682C87.8153 41.5181 86.9001 46.41 89.3438 49.9922C91.3914 52.9918 95.1463 54.1145 98.411 52.9629L96.5537 37.7333Z" fill="#C8E5F7"/>
<path d="M98.9975 50.6094C95.4233 53.0593 90.5455 52.143 88.0999 48.5608C85.6562 44.9787 86.5714 40.0867 90.1456 37.6368C93.7179 35.187 98.5975 36.1052 101.041 39.6874C103.487 43.2695 102.572 48.1596 98.9975 50.6094Z" fill="#F9FF42"/>
<path d="M97.8496 48.9274C95.2021 50.7426 91.5894 50.0616 89.7783 47.4092C87.969 44.7568 88.6458 41.1342 91.2933 39.3209C93.9389 37.5057 97.5535 38.1847 99.3627 40.8371C101.174 43.4914 100.495 47.1122 97.8496 48.9274Z" fill="#FCCE26"/>
<path d="M95.383 44.0528C94.9831 43.1924 94.8773 42.7796 95.1177 42.5327C95.3215 42.3244 95.6829 42.2684 96.1674 42.7449C96.6116 43.1808 96.8077 43.6033 96.9249 43.8907C97.1153 44.2804 97.6171 44.344 97.9016 44.0528C98.3727 43.5705 97.6344 42.5867 97.1922 42.1122L97.6344 41.6608C98.0478 41.1727 97.3845 40.5188 96.9096 40.947C96.9057 40.9432 96.4116 41.4486 96.4116 41.4486C95.4618 40.8217 94.4966 40.8834 93.8545 41.5393C93.145 42.2646 93.3238 43.1712 93.8583 44.2244C94.2275 44.9517 94.2909 45.3645 94.0121 45.648C93.7218 45.947 93.27 45.8255 92.8451 45.4089C92.4394 45.0095 92.1625 44.5157 92.001 44.0894C91.7088 43.3467 90.586 43.7595 90.8571 44.5176C90.9743 44.9632 91.3281 45.5728 91.8049 46.084L91.3281 46.572C90.8571 47.0543 91.5819 47.7757 92.0606 47.2858L92.5855 46.7495C93.5872 47.442 94.612 47.3359 95.2618 46.6704C95.9194 45.9991 95.9617 45.2372 95.383 44.0528Z" fill="#F9FF42"/>
<path d="M94.5981 68.6322C91.3276 71.8614 86.0634 71.8209 82.843 68.5435C79.6206 65.2661 79.661 59.9902 82.9314 56.7611C86.1999 53.5319 91.4641 53.5724 94.6846 56.8498C97.9069 60.1272 97.8685 65.403 94.5981 68.6322Z" fill="#C8E5F7"/>
<path d="M93.3371 68.1076C90.0666 71.3367 84.8043 71.2981 81.582 68.0207C78.3596 64.7414 78.4 59.4656 81.6704 56.2383C84.9408 53.0092 90.2031 53.0478 93.4255 56.3271C96.6459 59.6045 96.6075 64.8784 93.3371 68.1076Z" fill="#F9FF42"/>
<path d="M91.8219 66.5683C89.4013 68.9603 85.5041 68.9313 83.1181 66.5027C80.7321 64.076 80.7609 60.1678 83.1835 57.7778C85.6041 55.3858 89.5032 55.4148 91.8873 57.8434C94.2733 60.2701 94.2445 64.1783 91.8219 66.5683Z" fill="#FCCE26"/>
<path d="M88.3382 61.9463C87.7594 61.1246 87.5691 60.7137 87.7748 60.4109C87.9498 60.1543 88.3151 60.0289 88.9111 60.4321C89.4552 60.8044 89.7398 61.2114 89.9167 61.4872C90.1878 61.8595 90.7222 61.8306 90.9645 61.4718C91.3663 60.8796 90.4108 59.9923 89.8628 59.5814L90.2397 59.0258C90.58 58.4394 89.7628 57.8839 89.3476 58.4182C89.3437 58.4163 88.9226 59.0335 88.9226 59.0335C87.8133 58.5609 86.8173 58.8059 86.2713 59.6122C85.6676 60.5015 86.0252 61.4139 86.7789 62.4112C87.298 63.1018 87.4422 63.5204 87.2057 63.8696C86.9577 64.2361 86.4636 64.1936 85.9425 63.8387C85.4446 63.4992 85.062 63.0362 84.8159 62.6215C84.3717 61.9001 83.2777 62.5424 83.7027 63.2832C83.9084 63.7249 84.391 64.294 84.9831 64.7396L84.5775 65.3395C84.1756 65.9317 85.0677 66.547 85.4753 65.9471L85.9233 65.2874C87.0981 65.8217 88.1478 65.5169 88.7015 64.701C89.261 63.8773 89.1649 63.0729 88.3382 61.9463Z" fill="#F9FF42"/>
<path d="M120.087 47.5288C121.271 51.7051 118.852 56.0493 114.688 57.2356C110.524 58.4219 106.188 55.9972 105.006 51.8228C103.821 47.6484 106.238 43.3023 110.404 42.1179C114.569 40.9316 118.904 43.3544 120.087 47.5288Z" fill="#F9FF42"/>
<path d="M118.132 48.0865C119.006 51.1787 117.216 54.3963 114.133 55.274C111.049 56.1517 107.838 54.3577 106.961 51.2655C106.084 48.1752 107.876 44.9557 110.96 44.078C114.044 43.2003 117.255 44.9943 118.132 48.0865Z" fill="#FCCE26"/>
<path d="M112.739 48.8812C111.796 48.9892 111.372 48.9584 111.216 48.6517C111.081 48.3912 111.145 48.0305 111.748 47.7219C112.302 47.4383 112.766 47.3862 113.075 47.365C113.504 47.3071 113.721 46.8519 113.536 46.4892C113.231 45.8874 112.066 46.2771 111.477 46.5452L111.189 45.9819C110.86 45.4341 110.03 45.8585 110.285 46.4449C110.28 46.4487 110.599 47.0776 110.599 47.0776C109.705 47.7817 109.457 48.7192 109.874 49.5371C110.335 50.4399 111.25 50.5595 112.414 50.3839C113.219 50.2662 113.631 50.3376 113.811 50.6906C114.002 51.0629 113.742 51.4545 113.213 51.7246C112.706 51.985 112.152 52.0911 111.697 52.1085C110.901 52.149 110.935 53.3469 111.739 53.3314C112.196 53.3604 112.887 53.2196 113.523 52.9283L113.833 53.5359C114.138 54.1378 115.053 53.6787 114.742 53.0672L114.4 52.3978C115.373 51.6648 115.598 50.6578 115.175 49.8284C114.748 48.9912 114.042 48.7076 112.739 48.8812Z" fill="#F9FF42"/>
<path d="M110.31 37.8375C106.406 37.1816 103.77 33.476 104.425 29.562C105.079 25.6481 108.776 23.0053 112.681 23.6612C116.588 24.319 119.222 28.0246 118.568 31.9386C117.913 35.8525 114.217 38.4953 110.31 37.8375Z" fill="#F9FF42"/>
<path d="M110.618 35.9993C107.726 35.5132 105.775 32.7701 106.259 29.8708C106.744 26.9715 109.482 25.0155 112.375 25.5016C115.267 25.9877 117.218 28.7308 116.734 31.6301C116.249 34.5294 113.512 36.4854 110.618 35.9993Z" fill="#FCCE26"/>
<path d="M112.077 31.2208C112.358 30.399 112.548 30.0576 112.864 30.0479C113.131 30.0402 113.404 30.2331 113.421 30.8542C113.437 31.4252 113.298 31.8284 113.196 32.0927C113.073 32.4708 113.365 32.8315 113.737 32.8199C114.352 32.8025 114.486 31.6837 114.496 31.0915L115.075 31.0742C115.653 31.0163 115.63 30.1617 115.046 30.1424C115.046 30.1367 114.402 30.1559 114.402 30.1559C114.171 29.1394 113.496 28.5664 112.658 28.5915C111.733 28.6185 111.277 29.3303 110.964 30.3623C110.747 31.078 110.526 31.3905 110.164 31.4002C109.784 31.4117 109.562 31.0452 109.545 30.4993C109.53 29.9785 109.66 29.4769 109.824 29.0931C110.103 28.4179 109.101 27.9762 108.799 28.6494C108.595 29.0178 108.443 29.6428 108.432 30.2852L107.811 30.3025C107.194 30.3218 107.215 31.2574 107.84 31.24L108.526 31.2188C108.749 32.3126 109.491 32.8932 110.341 32.8681C111.199 32.8431 111.71 32.3685 112.077 31.2208Z" fill="#F9FF42"/>
<path d="M133.034 40.6038C131.433 43.6613 127.658 44.8399 124.607 43.235C121.558 41.6281 120.381 37.8453 121.985 34.7878C123.586 31.7304 127.358 30.5517 130.41 32.1586C133.461 33.7655 134.636 37.5463 133.034 40.6038Z" fill="#F9FF42"/>
<path d="M131.6 39.8496C130.413 42.1142 127.62 42.9861 125.361 41.7979C123.1 40.6077 122.231 37.8067 123.417 35.5421C124.603 33.2774 127.399 32.4055 129.658 33.5938C131.917 34.784 132.788 37.5849 131.6 39.8496Z" fill="#FCCE26"/>
<path d="M128.055 37.3437C127.453 36.8865 127.224 36.6357 127.301 36.3734C127.368 36.1496 127.601 35.976 128.118 36.1284C128.593 36.2712 128.889 36.4949 129.079 36.6531C129.358 36.8557 129.733 36.7129 129.825 36.4023C129.977 35.8873 129.091 35.4706 128.606 35.3028L128.749 34.8186C128.858 34.3229 128.147 34.1107 127.972 34.5891C127.968 34.5871 127.808 35.1253 127.808 35.1253C126.909 35.0405 126.253 35.4455 126.043 36.1458C125.815 36.9212 126.278 37.4922 127.045 38.0324C127.576 38.4066 127.774 38.6728 127.683 38.9776C127.589 39.2959 127.228 39.3788 126.774 39.2438C126.34 39.1165 125.961 38.8715 125.69 38.6323C125.207 38.2175 124.571 38.9274 125.044 39.3614C125.292 39.6296 125.767 39.9266 126.293 40.108L126.138 40.6288C125.988 41.1458 126.764 41.383 126.92 40.8584L127.089 40.2835C128.053 40.3973 128.733 39.9401 128.943 39.2283C129.154 38.5107 128.902 37.9591 128.055 37.3437Z" fill="#F9FF42"/>
<path d="M127.614 17.2413C130.067 15.6268 133.361 16.3135 134.972 18.773C136.581 21.2325 135.897 24.5349 133.444 26.1476C130.99 27.7622 127.697 27.0754 126.086 24.6159C124.476 22.1565 125.161 18.854 127.614 17.2413Z" fill="#F9FF42"/>
<path d="M128.37 18.397C130.189 17.201 132.627 17.7083 133.819 19.5312C135.011 21.3522 134.505 23.7982 132.688 24.9923C130.871 26.1882 128.431 25.6809 127.239 23.858C126.047 22.037 126.553 19.591 128.37 18.397Z" fill="#FCCE26"/>
<path d="M129.977 21.7321C130.237 22.3205 130.304 22.6021 130.138 22.7661C129.996 22.905 129.752 22.9377 129.429 22.6079C129.135 22.307 129.008 22.0176 128.931 21.8208C128.806 21.5546 128.468 21.5064 128.272 21.6993C127.945 22.0195 128.433 22.6966 128.727 23.0226L128.42 23.3235C128.135 23.6476 128.575 24.099 128.902 23.8154C128.906 23.8193 129.246 23.4837 129.246 23.4837C129.883 23.9196 130.538 23.8907 130.981 23.4547C131.471 22.9725 131.361 22.3552 131.013 21.6357C130.773 21.138 130.734 20.8563 130.927 20.6673C131.129 20.4705 131.432 20.5573 131.715 20.8467C131.986 21.1225 132.167 21.4601 132.271 21.7514C132.457 22.2587 133.224 21.9945 133.049 21.4756C132.976 21.1727 132.746 20.756 132.428 20.4011L132.759 20.077C133.084 19.7568 132.603 19.2572 132.271 19.5832L131.909 19.942C131.238 19.4578 130.542 19.5176 130.094 19.9594C129.64 20.4069 129.6 20.9219 129.977 21.7321Z" fill="#F9FF42"/>
<path d="M149.384 21.6377C148.763 23.8503 146.471 25.1369 144.266 24.5158C142.061 23.8927 140.776 21.5972 141.396 19.3866C142.017 17.1759 144.308 15.8873 146.514 16.5104C148.719 17.1315 150.003 19.429 149.384 21.6377Z" fill="#F9FF42"/>
<path d="M148.348 21.3463C147.888 22.9841 146.191 23.937 144.558 23.476C142.924 23.0169 141.972 21.3155 142.432 19.6777C142.891 18.0419 144.589 17.0871 146.221 17.5481C147.856 18.0091 148.807 19.7086 148.348 21.3463Z" fill="#FCCE26"/>
<path d="M145.697 20.2065C145.243 19.9944 145.058 19.8632 145.074 19.6819C145.085 19.5256 145.212 19.3809 145.57 19.4099C145.899 19.4349 146.122 19.541 146.268 19.6163C146.475 19.7108 146.7 19.5661 146.718 19.3501C146.746 18.9932 146.112 18.8466 145.774 18.8042L145.8 18.4704C145.802 18.1329 145.31 18.0923 145.264 18.428C145.26 18.428 145.231 18.8003 145.231 18.8003C144.633 18.8697 144.262 19.2227 144.224 19.7089C144.182 20.2432 144.562 20.5499 145.135 20.7949C145.531 20.9646 145.697 21.1113 145.679 21.3215C145.662 21.5414 145.439 21.6456 145.126 21.6224C144.824 21.5974 144.545 21.4913 144.335 21.3736C143.964 21.1711 143.649 21.7208 144.016 21.9369C144.214 22.0777 144.564 22.205 144.931 22.2494L144.903 22.6101C144.876 22.967 145.414 23.0133 145.443 22.6506L145.474 22.2532C146.114 22.1934 146.495 21.8018 146.533 21.3119C146.571 20.8142 146.331 20.4901 145.697 20.2065Z" fill="#F9FF42"/>
</svg>
