<svg width="146" height="160" viewBox="0 0 146 160" fill="none" xmlns="http://www.w3.org/2000/svg">
<path d="M139.058 116.364C142.617 116.364 145.5 119.618 145.5 123.636C145.5 127.654 142.617 130.908 139.058 130.908C135.496 130.908 132.614 127.654 132.614 123.636C132.614 119.618 135.496 116.364 139.058 116.364Z" fill="#74829C"/>
<mask id="mask0_194_5287" style="mask-type:luminance" maskUnits="userSpaceOnUse" x="0" y="43" width="11" height="12">
<path d="M0.5 43.2097H10.3328V54.5677H0.5V43.2097Z" fill="white"/>
</mask>
<g mask="url(#mask0_194_5287)">
<path d="M5.3517 43.636C8.01922 43.636 10.1843 46.08 10.1843 49.0912C10.1843 52.1024 8.01922 54.5445 5.3517 54.5445C2.68417 54.5445 0.519043 52.1024 0.519043 49.0912C0.519043 46.08 2.68417 43.636 5.3517 43.636Z" fill="#74829C"/>
</g>
<mask id="mask1_194_5287" style="mask-type:luminance" maskUnits="userSpaceOnUse" x="6" y="148" width="11" height="12">
<path d="M6.83301 148.889H16.8948V160H6.83301V148.889Z" fill="white"/>
</mask>
<g mask="url(#mask1_194_5287)">
<path d="M11.7953 149.091C14.4628 149.091 16.628 151.535 16.628 154.545C16.628 157.556 14.4628 160 11.7953 160C9.12777 160 6.96265 157.556 6.96265 154.545C6.96265 151.535 9.12777 149.091 11.7953 149.091Z" fill="#74829C"/>
</g>
<mask id="mask2_194_5287" style="mask-type:luminance" maskUnits="userSpaceOnUse" x="19" y="134" width="24" height="26">
<path d="M19.5195 134.074H42.7053V160H19.5195V134.074Z" fill="white"/>
</mask>
<g mask="url(#mask2_194_5287)">
<path d="M42.4029 134.544V160C33.5937 150.058 28.6585 144.487 19.8494 134.544H42.4029Z" fill="#BEC3C7"/>
</g>
<mask id="mask3_194_5287" style="mask-type:luminance" maskUnits="userSpaceOnUse" x="19" y="0" width="105" height="160">
<path d="M19.5195 0H123.199V160H19.5195V0Z" fill="white"/>
</mask>
<g mask="url(#mask3_194_5287)">
<path d="M19.8494 0C19.8494 15.5015 19.8494 118.829 19.8494 134.545H42.4029V160H122.948C122.948 154.466 122.948 5.27971 122.948 0H19.8494Z" fill="#ECF0F1"/>
</g>
<path d="M128.979 29.0547L122.948 31.7592L19.8495 77.9899L1.86035 86.0551L13.8189 120.037L19.8495 117.33L122.948 71.1014L140.939 63.0362L128.979 29.0547Z" fill="#F14742"/>
<path d="M141.336 22.8839C141.918 23.5417 142.279 24.4503 142.279 25.4553C142.279 26.4584 141.918 27.3669 141.336 28.0247C140.751 28.6844 139.946 29.0915 139.058 29.0915C137.279 29.0915 135.835 27.4615 135.835 25.4553C135.835 24.4503 136.196 23.5417 136.78 22.8839C137.363 22.2261 138.168 21.8191 139.058 21.8191C139.946 21.8191 140.751 22.2261 141.336 22.8839Z" fill="#74829C"/>
<path d="M141.336 88.339C141.918 88.9968 142.279 89.9053 142.279 90.9084C142.279 91.9115 141.918 92.822 141.336 93.4798C140.751 94.1376 139.946 94.5446 139.058 94.5446C137.279 94.5446 135.835 92.9165 135.835 90.9084C135.835 89.9053 136.196 88.9968 136.78 88.339C137.363 87.6792 138.168 87.2722 139.058 87.2722C139.946 87.2722 140.751 87.6792 141.336 88.339Z" fill="#74829C"/>
<path d="M120.877 61.7959L115.47 64.2188L109.717 47.8723L115.122 45.4514C116.318 44.9132 117.442 44.6586 118.488 44.6875C120.605 44.7415 122.338 45.7118 123.637 47.4036C124.291 48.2543 124.816 49.2438 125.209 50.3646C127.02 55.5016 125.077 59.9132 120.877 61.7959ZM117.647 59.4039L119.71 58.4799C122.198 57.3631 122.771 54.6296 121.803 51.8904C120.817 49.0876 118.772 47.6505 116.289 48.7635L114.23 49.6914L117.647 59.4039Z" fill="#ECF0F1"/>
<path d="M105.431 64.8843L112.265 61.8191L113.43 65.1351L103.254 69.6991L97.4983 53.3527L107.493 48.8735L108.659 52.1856L102.01 55.1679L103.127 58.345L108.84 55.7852L109.918 58.8465L104.207 61.4083L105.431 64.8843Z" fill="#ECF0F1"/>
<path d="M96.1516 53.9563L96.4199 72.7642L93.6037 74.0257L82.3013 60.1677L85.8523 58.5744L93.3422 68.6515L92.6245 55.5381L96.1516 53.9563Z" fill="#ECF0F1"/>
<path d="M78.0584 66.3233C76.898 66.2037 75.507 66.8441 74.7825 67.8183C74.0306 68.8214 73.7315 70.0617 73.8323 71.3638C73.8836 72.0216 74.4116 74.0027 75.1242 74.9961C75.8556 76.0108 76.8211 76.6917 77.9849 76.819C79.1606 76.9463 80.543 76.3098 81.2796 75.3125C82.028 74.3017 82.3117 73.0575 82.2075 71.738C82.0058 69.1493 80.4456 66.5663 78.0584 66.3233ZM83.578 77.88C82.8551 78.7384 79.8339 80.6327 77.7371 80.4726C75.6266 80.3163 73.805 79.2843 72.4174 77.608C69.5311 74.1203 69.5141 68.7384 72.4943 65.243C73.9673 63.5204 76.2538 62.5058 78.3386 62.662C80.449 62.8221 82.2758 63.8696 83.6583 65.5555C85.0989 67.3206 85.8063 69.4907 85.7909 71.7168C85.7721 73.9969 85.0459 76.1381 83.578 77.88Z" fill="#ECF0F1"/>
<path d="M65.052 76.1787C65.1904 75.6289 65.1426 75.0213 64.9102 74.3635C64.6709 73.6864 64.3206 73.2253 63.8541 72.9707C63.3859 72.7199 62.9638 72.6756 62.581 72.8473L59.6264 74.1744L61.1951 78.6401L64.2557 77.2686C64.6487 77.0911 64.917 76.7265 65.052 76.1787ZM68.3159 72.8357C68.9892 74.7493 68.8286 76.9715 67.6204 78.6401L72.9418 83.2909L69.1686 84.9827L64.5393 80.953L62.3554 81.931L64.2112 87.203L60.867 88.7057L55.1133 72.3592L61.6394 69.4329C62.3195 69.1281 63.0065 69.0066 63.6952 69.0683C65.8569 69.2651 67.629 70.8874 68.3159 72.8357Z" fill="#ECF0F1"/>
<path d="M52.0391 82.0794C52.1912 81.5663 52.1365 80.9451 51.8785 80.2083C51.7435 79.8225 51.5811 79.5138 51.3948 79.2765C51.0667 78.8579 50.6378 78.5705 50.144 78.5705C49.9218 78.5744 49.7185 78.6149 49.5288 78.7017L46.9159 79.8726L48.4881 84.3383L51.224 83.1114C51.617 82.9339 51.8904 82.5925 52.0391 82.0794ZM55.6567 80.9123C55.679 83.2619 54.6383 85.3934 52.5859 86.3136L49.6484 87.6292L51.5042 92.9012L48.16 94.4039L42.4062 78.0593L48.5855 75.2873C49.2776 74.9748 49.9714 74.8514 50.6635 74.9131C53.2695 75.1523 55.6209 77.579 55.6567 80.9123Z" fill="#ECF0F1"/>
<path d="M39.3323 87.7776C39.4844 87.2665 39.4297 86.6434 39.1717 85.9065C39.0367 85.5207 38.8743 85.2121 38.6881 84.9748C38.3634 84.56 37.9345 84.2688 37.4389 84.2688C37.215 84.2726 37.0134 84.3131 36.822 84.3999L34.2091 85.5709L35.7813 90.0365L38.5172 88.8116C38.9102 88.6322 39.1836 88.2908 39.3323 87.7776ZM42.9465 86.6106C42.9739 88.9601 41.9298 91.0917 39.8808 92.0118L36.9416 93.3274L38.7974 98.5994L35.4532 100.102L29.6995 83.7557L35.8787 80.9856C36.5708 80.6731 37.2646 80.5496 37.9567 80.6114C40.5576 80.8506 42.9158 83.2695 42.9465 86.6106Z" fill="#ECF0F1"/>
<path d="M23.2947 98.3023L26.7226 96.7629L22.9939 91.7456L23.2947 98.3023ZM22.9888 86.7629L34.0229 100.742L30.5983 102.276L28.1888 99.1202L23.6809 101.142L23.8671 105.295L20.4392 106.832L19.9692 88.1171L22.9888 86.7629Z" fill="#ECF0F1"/>
<path d="M9.24081 19.2477C9.82353 19.9054 10.1841 20.814 10.1841 21.819C10.1841 22.8221 9.82353 23.7307 9.24081 24.3885C8.65809 25.0482 7.8515 25.4552 6.9629 25.4552C5.18398 25.4552 3.7417 23.8252 3.7417 21.819C3.7417 20.814 4.10227 19.9054 4.68499 19.2477C5.26771 18.5899 6.07429 18.1809 6.9629 18.1809C7.8515 18.1809 8.65809 18.5899 9.24081 19.2477Z" fill="#74829C"/>
<mask id="mask4_194_5287" style="mask-type:luminance" maskUnits="userSpaceOnUse" x="0" y="127" width="8" height="8">
<path d="M0.5 127.16H7.2705V134.568H0.5V127.16Z" fill="white"/>
</mask>
<g mask="url(#mask4_194_5287)">
<path d="M6.01986 128.339C6.60258 128.997 6.96315 129.905 6.96315 130.908C6.96315 131.913 6.60258 132.822 6.01986 133.48C5.43543 134.138 4.63056 134.545 3.74195 134.545C1.96303 134.545 0.519043 132.917 0.519043 130.908C0.519043 129.905 0.879612 128.997 1.46404 128.339C2.04676 127.679 2.85164 127.272 3.74195 127.272C4.63056 127.272 5.43543 127.679 6.01986 128.339Z" fill="#74829C"/>
</g>
<path d="M97.1737 21.819H35.959C34.1801 21.819 32.7378 20.1909 32.7378 18.1809C32.7378 16.1728 34.1801 14.5447 35.959 14.5447H97.1737C98.9527 14.5447 100.395 16.1728 100.395 18.1809C100.395 20.1909 98.9527 21.819 97.1737 21.819Z" fill="#65B2FE"/>
<path d="M81.0643 32.7277H35.959C34.1801 32.7277 32.7378 31.0996 32.7378 29.0915C32.7378 27.0834 34.1801 25.4553 35.959 25.4553H81.0643C82.8432 25.4553 84.2872 27.0834 84.2872 29.0915C84.2872 31.0996 82.8432 32.7277 81.0643 32.7277Z" fill="#65B2FE"/>
<path d="M64.9549 43.6361H35.959C34.1801 43.6361 32.7378 42.0081 32.7378 40C32.7378 37.9919 34.1801 36.3638 35.959 36.3638H64.9549C66.7355 36.3638 68.1778 37.9919 68.1778 40C68.1778 42.0081 66.7355 43.6361 64.9549 43.6361Z" fill="#65B2FE"/>
<path d="M110.06 149.091H87.5083C85.7294 149.091 84.2871 147.463 84.2871 145.455C84.2871 143.447 85.7294 141.819 87.5083 141.819H110.06C111.839 141.819 113.283 143.447 113.283 145.455C113.283 147.463 111.839 149.091 110.06 149.091Z" fill="#65B2FE"/>
<path d="M110.06 138.181H87.5083C85.7294 138.181 84.2871 136.553 84.2871 134.545C84.2871 132.537 85.7294 130.909 87.5083 130.909H110.06C111.839 130.909 113.283 132.537 113.283 134.545C113.283 136.553 111.839 138.181 110.06 138.181Z" fill="#65B2FE"/>
</svg>
