<svg width="116" height="160" viewBox="0 0 116 160" fill="none" xmlns="http://www.w3.org/2000/svg">
<mask id="mask0_194_5143" style="mask-type:luminance" maskUnits="userSpaceOnUse" x="0" y="0" width="103" height="146">
<path d="M0.875 0H102.837V145.556H0.875V0Z" fill="white"/>
</mask>
<g mask="url(#mask0_194_5143)">
<path d="M31.5016 6.81485L31.8791 8.537H4.75224C2.64304 8.537 0.932129 10.2697 0.932129 12.4079V142.133C0.932129 143.999 2.42658 145.512 4.26909 145.512H100.868C101.955 145.512 102.835 144.62 102.835 143.519V11.9111C102.835 10.1345 101.415 8.69675 99.6627 8.69675H69.5451L68.2429 2.57707C67.9139 1.02696 66.461 -8.01682e-06 64.9111 0.21943L32.8939 4.78023C31.9328 4.91716 31.2904 5.85459 31.5016 6.81485Z" fill="#076344"/>
</g>
<path d="M3.76685 12.0217H100.044V143.216H3.76685V12.0217Z" fill="#F1F2EB"/>
<path d="M28.1718 31.1058L28.8714 33.4792C28.6289 33.6741 28.3034 33.8321 27.8981 33.9497C27.4929 34.0673 27.0808 34.127 26.6652 34.127C25.8651 34.127 25.2002 33.9778 24.6737 33.6794C24.1456 33.3809 23.7178 32.9596 23.394 32.4154L22.3896 30.7038C22.2684 30.4984 22.1524 30.3439 22.0398 30.2421C21.929 30.1385 21.7922 30.0718 21.6294 30.042V33.9409H18.6475V22.9954H22.2996C23.962 22.9954 25.1915 23.3149 25.9881 23.9521C26.7847 24.5894 27.183 25.4724 27.183 26.6029C27.183 27.4052 26.9544 28.0705 26.4972 28.6007C26.0418 29.1291 25.4391 29.5013 24.6876 29.7172C25.0738 29.8418 25.3768 30.0718 25.6002 30.4106L25.8738 30.8267C26.1284 31.2287 26.518 31.4288 27.0462 31.4288C27.2384 31.4288 27.4289 31.406 27.6176 31.3586C27.8046 31.3129 27.9899 31.2287 28.1718 31.1058ZM22.2684 25.4776H21.6294V27.651H22.4052C23.065 27.651 23.5239 27.5614 23.7837 27.3824C24.0417 27.2015 24.1698 26.9224 24.1698 26.5415C24.1698 26.1307 23.9949 25.8516 23.6451 25.7023C23.2953 25.5531 22.8364 25.4776 22.2684 25.4776Z" fill="#3A3A3A"/>
<path d="M37.4224 25.6321H32.5391V27.1278H37.0276V29.7628H32.5391V31.3059H37.5454L37.3618 33.9409H29.5415V22.9954H37.4224V25.6321Z" fill="#3A3A3A"/>
<path d="M48.6972 31.7675C48.2314 32.5189 47.5924 33.0964 46.7819 33.5019C45.9698 33.9075 45.0676 34.1111 44.0718 34.1111C42.8545 34.1111 41.8137 33.8952 40.9461 33.4633C40.0786 33.0315 39.4171 32.41 38.9599 31.599C38.5027 30.7862 38.2759 29.8207 38.2759 28.7006C38.2759 27.5174 38.527 26.4905 39.0292 25.6162C39.5296 24.7437 40.2327 24.0626 41.1349 23.5746C42.0388 23.0865 43.0882 22.8425 44.2866 22.8425C45.3412 22.8425 46.2278 23.0286 46.9482 23.4043C47.6686 23.78 48.2573 24.3575 48.7128 25.1387L46.4166 26.7889C46.2226 26.408 45.923 26.1078 45.5178 25.8866C45.1126 25.6654 44.6658 25.5548 44.1792 25.5548C43.2874 25.5442 42.5947 25.8251 42.1012 26.3957C41.6094 26.9662 41.3652 27.7088 41.3652 28.6234C41.3652 29.4959 41.5903 30.177 42.0406 30.6651C42.4925 31.1531 43.1748 31.3971 44.0874 31.3971C45.1438 31.3971 45.9334 30.9354 46.4616 30.0102L48.6972 31.7675Z" fill="#3A3A3A"/>
<path d="M57.5391 25.6321H52.654V27.1278H57.1426V29.7628H52.654V31.3059H57.6604L57.4768 33.9409H49.6565V22.9954H57.5391V25.6321Z" fill="#3A3A3A"/>
<path d="M59.0442 22.9954H62.0868V33.9409H59.0442V22.9954Z" fill="#3A3A3A"/>
<path d="M67.23 33.9409H64.248V22.9954H68.34C70.0146 22.9954 71.2493 23.3026 72.0458 23.9135C72.8424 24.5244 73.2407 25.4162 73.2407 26.5889C73.2407 27.3701 73.0329 28.0424 72.6156 28.6077C72.2 29.173 71.6129 29.6066 70.851 29.9103C70.0908 30.214 69.1834 30.365 68.1288 30.365H67.23V33.9409ZM68.4318 25.4776H67.23V27.8669H68.2794C68.9098 27.8669 69.3877 27.7703 69.7185 27.5755C70.0475 27.3789 70.212 27.0611 70.212 26.6187C70.212 26.229 70.07 25.9411 69.786 25.755C69.502 25.5707 69.0518 25.4776 68.4318 25.4776Z" fill="#3A3A3A"/>
<path d="M83.4503 22.9954L83.0088 25.6778H79.845V33.9409H76.8006V25.6778H73.4221V22.9954H83.4503Z" fill="#3A3A3A"/>
<path d="M31.434 51.431H11.1906C9.96973 51.431 8.98267 50.4286 8.98267 49.1945V45.2165C8.98267 43.9806 9.96973 42.98 11.1906 42.98H31.434C32.6549 42.98 33.6419 43.9806 33.6419 45.2165V49.1945C33.6419 50.4286 32.6549 51.431 31.434 51.431Z" fill="#777777"/>
<path d="M91.091 51.431H77.1959C75.9768 51.431 74.988 50.4286 74.988 49.1945V45.2165C74.988 43.9806 75.9768 42.98 77.1959 42.98H91.091C92.3101 42.98 93.2989 43.9806 93.2989 45.2165V49.1945C93.2989 50.4286 92.3101 51.431 91.091 51.431Z" fill="#777777"/>
<path d="M35.9419 50.3425H72.5152V51.2923H35.9419V50.3425Z" fill="#777777"/>
<path d="M31.434 64.0198H11.1906C9.96973 64.0198 8.98267 63.0192 8.98267 61.7833V57.8054C8.98267 56.5695 9.96973 55.5688 11.1906 55.5688H31.434C32.6549 55.5688 33.6419 56.5695 33.6419 57.8054V61.7833C33.6419 63.0192 32.6549 64.0198 31.434 64.0198Z" fill="#777777"/>
<path d="M91.091 64.0198H77.1959C75.9768 64.0198 74.988 63.0192 74.988 61.7833V57.8054C74.988 56.5695 75.9768 55.5688 77.1959 55.5688H91.091C92.3101 55.5688 93.2989 56.5695 93.2989 57.8054V61.7833C93.2989 63.0192 92.3101 64.0198 91.091 64.0198Z" fill="#777777"/>
<path d="M35.9419 62.9314H72.5152V63.8811H35.9419V62.9314Z" fill="#777777"/>
<path d="M31.434 76.6085H11.1906C9.96973 76.6085 8.98267 75.6078 8.98267 74.372V70.394C8.98267 69.1581 9.96973 68.1575 11.1906 68.1575H31.434C32.6549 68.1575 33.6419 69.1581 33.6419 70.394V74.372C33.6419 75.6078 32.6549 76.6085 31.434 76.6085Z" fill="#777777"/>
<path d="M91.091 76.6085H77.1959C75.9768 76.6085 74.988 75.6078 74.988 74.372V70.394C74.988 69.1581 75.9768 68.1575 77.1959 68.1575H91.091C92.3101 68.1575 93.2989 69.1581 93.2989 70.394V74.372C93.2989 75.6078 92.3101 76.6085 91.091 76.6085Z" fill="#777777"/>
<path d="M35.9419 75.52H72.5152V76.4697H35.9419V75.52Z" fill="#777777"/>
<path d="M31.434 88.7233H11.1906C9.96973 88.7233 8.98267 87.7209 8.98267 86.485V82.5088C8.98267 81.2729 9.96973 80.2705 11.1906 80.2705H31.434C32.6549 80.2705 33.6419 81.2729 33.6419 82.5088V86.485C33.6419 87.7209 32.6549 88.7233 31.434 88.7233Z" fill="#777777"/>
<path d="M91.091 88.7233H77.1959C75.9768 88.7233 74.988 87.7209 74.988 86.485V82.5088C74.988 81.2729 75.9768 80.2705 77.1959 80.2705H91.091C92.3101 80.2705 93.2989 81.2729 93.2989 82.5088V86.485C93.2989 87.7209 92.3101 88.7233 91.091 88.7233Z" fill="#777777"/>
<path d="M35.9419 87.6348H72.5152V88.5845H35.9419V87.6348Z" fill="#777777"/>
<path d="M31.434 101.64H11.1906C9.96973 101.64 8.98267 100.639 8.98267 99.4034V95.4255C8.98267 94.1896 9.96973 93.189 11.1906 93.189H31.434C32.6549 93.189 33.6419 94.1896 33.6419 95.4255V99.4034C33.6419 100.639 32.6549 101.64 31.434 101.64Z" fill="#777777"/>
<path d="M91.091 101.64H77.1959C75.9768 101.64 74.988 100.639 74.988 99.4034V95.4255C74.988 94.1896 75.9768 93.189 77.1959 93.189H91.091C92.3101 93.189 93.2989 94.1896 93.2989 95.4255V99.4034C93.2989 100.639 92.3101 101.64 91.091 101.64Z" fill="#777777"/>
<path d="M35.9419 100.552H72.5152V101.501H35.9419V100.552Z" fill="#777777"/>
<path d="M31.434 113.992H11.1906C9.96973 113.992 8.98267 112.99 8.98267 111.755V107.778C8.98267 106.542 9.96973 105.541 11.1906 105.541H31.434C32.6549 105.541 33.6419 106.542 33.6419 107.778V111.755C33.6419 112.99 32.6549 113.992 31.434 113.992Z" fill="#777777"/>
<path d="M32.6064 137.27H12.3612C11.1421 137.27 10.1533 136.267 10.1533 135.031V131.055C10.1533 129.819 11.1421 128.817 12.3612 128.817H32.6064C33.8272 128.817 34.8143 129.819 34.8143 131.055V135.031C34.8143 136.267 33.8272 137.27 32.6064 137.27Z" fill="#777777"/>
<path d="M91.091 137.27H70.8458C69.6267 137.27 68.6379 136.267 68.6379 135.031V131.055C68.6379 129.819 69.6267 128.817 70.8458 128.817H91.091C92.3101 128.817 93.2989 129.819 93.2989 131.055V135.031C93.2989 136.267 92.3101 137.27 91.091 137.27Z" fill="#777777"/>
<path d="M91.091 113.992H77.1959C75.9768 113.992 74.988 112.99 74.988 111.755V107.778C74.988 106.542 75.9768 105.541 77.1959 105.541H91.091C92.3101 105.541 93.2989 106.542 93.2989 107.778V111.755C93.2989 112.99 92.3101 113.992 91.091 113.992Z" fill="#777777"/>
<path d="M35.9419 112.904H72.5152V113.853H35.9419V112.904Z" fill="#777777"/>
<path d="M10.1533 123.739H93.2987V124.688H10.1533V123.739Z" fill="#777777"/>
<path d="M35.3269 7.64183L66.1198 3.21094L67.6593 14.1846L36.8664 18.6172L35.3269 7.64183Z" fill="#F0A047"/>
<mask id="mask1_194_5143" style="mask-type:luminance" maskUnits="userSpaceOnUse" x="61" y="103" width="55" height="58">
<path d="M61.0825 103.074H115.125V160H61.0825V103.074Z" fill="white"/>
</mask>
<g mask="url(#mask1_194_5143)">
<mask id="mask2_194_5143" style="mask-type:luminance" maskUnits="userSpaceOnUse" x="61" y="103" width="55" height="57">
<path d="M88.1038 103.074C95.2713 103.074 102.144 105.961 107.211 111.099C112.278 116.235 115.125 123.203 115.125 130.467V132.507C115.125 139.771 112.278 146.739 107.211 151.876C102.144 157.014 95.2713 159.9 88.1038 159.9C80.9381 159.9 74.065 157.014 68.9981 151.876C63.9294 146.739 61.0825 139.771 61.0825 132.507V130.467C61.0825 123.203 63.9294 116.235 68.9981 111.099C74.065 105.961 80.9381 103.074 88.1038 103.074Z" fill="white"/>
</mask>
<g mask="url(#mask2_194_5143)">
<path d="M61.0825 103.074H115.125V160H61.0825V103.074Z" fill="white"/>
</g>
</g>
<mask id="mask3_194_5143" style="mask-type:luminance" maskUnits="userSpaceOnUse" x="62" y="106" width="52" height="51">
<path d="M62.9717 106.01H113.237V156.965H62.9717V106.01Z" fill="white"/>
</mask>
<g mask="url(#mask3_194_5143)">
<mask id="mask4_194_5143" style="mask-type:luminance" maskUnits="userSpaceOnUse" x="62" y="106" width="52" height="51">
<path d="M113.237 131.487C113.237 117.415 101.985 106.01 88.1037 106.01C74.2242 106.01 62.9717 117.415 62.9717 131.487C62.9717 145.557 74.2242 156.965 88.1037 156.965C101.985 156.965 113.237 145.557 113.237 131.487Z" fill="white"/>
</mask>
<g mask="url(#mask4_194_5143)">
<path d="M88.1037 156.965C101.966 156.965 113.237 145.54 113.237 131.487C113.237 117.434 101.966 106.01 88.1037 106.01C74.2415 106.01 62.9717 117.434 62.9717 131.487C62.9717 145.54 74.2415 156.965 88.1037 156.965ZM88.1435 115.563V115.961C88.6544 115.961 89.1652 116.16 89.5185 116.518L99.1778 126.312C99.9242 127.107 99.9242 128.341 99.1778 129.138L97.5293 130.81C97.176 131.169 96.6652 131.408 96.1543 131.408C95.6435 131.408 95.1343 131.208 94.7794 130.81L91.9532 127.904C91.8355 127.785 91.6779 127.744 91.5203 127.825C91.3627 127.904 91.2848 128.024 91.2848 128.183V144.624C91.2848 145.7 90.3826 146.614 89.283 146.614H86.966C85.9044 146.614 85.0403 145.738 85.0403 144.624V128.262C85.0403 128.103 84.9624 127.945 84.8048 127.904C84.649 127.825 84.4914 127.864 84.3736 127.983L81.6254 130.771C81.2704 131.129 80.7613 131.368 80.2505 131.368C79.7396 131.368 79.2288 131.169 78.8755 130.771L77.1092 129.098C76.7559 128.74 76.5204 128.222 76.5204 127.706C76.5204 127.188 76.7161 126.67 77.1092 126.312L86.7305 116.558C87.0837 116.2 87.5928 115.961 88.1037 115.961L88.1435 115.563Z" fill="#A6A6A6"/>
</g>
</g>
</svg>
