<svg width="146" height="160" viewBox="0 0 146 160" fill="none" xmlns="http://www.w3.org/2000/svg">
<mask id="mask0_194_4744" style="mask-type:luminance" maskUnits="userSpaceOnUse" x="39" y="0" width="106" height="140">
<path d="M39.6172 0H144.135V139.506H39.6172V0Z" fill="white"/>
</mask>
<g mask="url(#mask0_194_4744)">
<path d="M39.7976 0H143.813V139.502H39.7976V0Z" fill="#F4F2F3"/>
</g>
<path d="M47.3135 50.895H136.296V54.7067H47.3135V50.895Z" fill="#E9E6E7"/>
<path d="M47.3135 62.1528H136.296V65.9665H47.3135V62.1528Z" fill="#E9E6E7"/>
<path d="M47.3135 106.499H136.296V110.312H47.3135V106.499Z" fill="#E9E6E7"/>
<path d="M91.8057 128.029H136.298V131.84H91.8057V128.029Z" fill="#E9E6E7"/>
<path d="M83.8354 117.262H136.297V121.076H83.8354V117.262Z" fill="#E9E6E7"/>
<path d="M88.02 26.0339H136.298V29.8476H88.02V26.0339Z" fill="#E9E6E7"/>
<path d="M88.02 39.6392H136.298V43.4509H88.02V39.6392Z" fill="#E9E6E7"/>
<path d="M47.3135 26.0322V43.4512H82.6166V26.0322H47.3135ZM79.5382 40.3532H50.3918V29.1321H79.5382V40.3532Z" fill="#E9E6E7"/>
<path d="M47.3135 72.2705V100.195H136.296V72.2705H47.3135ZM75.4287 97.095H50.3918V88.1405H75.4287V97.095ZM75.4287 84.3268H50.3918V75.3704H75.4287V84.3268ZM104.324 97.095H79.2162V88.1405H104.324V97.095ZM104.324 84.3268H79.2162V75.3704H104.324V84.3268ZM133.217 97.095H108.112V88.1405H133.217V97.095ZM133.217 84.3268H108.112V75.3704H133.217V84.3268Z" fill="#E9E6E7"/>
<path d="M47.3135 127.641H78.9594V128.416H47.3135V127.641Z" fill="#D2D0D1"/>
<path d="M51.3731 128.148C51.2562 128.148 51.1431 128.142 51.03 128.133C49.2301 127.963 47.346 126.437 47.2271 123.852C47.16 122.427 47.8558 120.658 48.9196 119.551C49.5368 118.912 50.2058 118.573 50.8536 118.573C50.8632 118.573 50.8728 118.573 50.8824 118.573C51.4593 118.582 51.9826 118.858 52.3181 119.331C52.6554 119.805 52.7474 120.392 52.5711 120.943L52.3947 120.885C52.5538 120.392 52.4714 119.865 52.1686 119.441C51.8657 119.014 51.3961 118.767 50.8805 118.76C50.8709 118.76 50.8632 118.76 50.8536 118.76C50.2556 118.76 49.6327 119.078 49.0519 119.682C48.0379 120.735 47.3479 122.487 47.4111 123.845C47.5261 126.323 49.3279 127.786 51.0472 127.948C52.5097 128.081 54.2713 127.313 54.877 124.751C55.6398 121.516 54.3058 119.861 53.4451 119.165C52.2356 118.187 50.5105 117.926 49.2474 118.54C48.2545 119.022 47.7121 119.952 47.7178 121.159H47.5338C47.5261 119.877 48.1069 118.889 49.1669 118.372C50.4875 117.732 52.297 117.996 53.5601 119.018C54.4572 119.743 55.843 121.458 55.0571 124.796C54.4706 127.278 52.8298 128.148 51.3731 128.148Z" fill="#010101"/>
<path d="M62.7702 131.937C62.7242 131.937 62.6839 131.9 62.6782 131.854C62.2891 128.648 62.1395 125.397 62.2354 122.16C62.2009 122.147 62.176 122.114 62.176 122.074C62.176 121.96 62.174 121.844 62.1721 121.728L61.7543 122.361C61.1946 123.206 60.677 123.27 60.3819 123.225C60.2899 123.358 60.1825 123.491 60.0618 123.623C57.9016 125.993 55.3925 125.341 53.8898 124.948C53.6827 124.894 53.4911 124.846 53.3243 124.811C52.1052 124.543 51.097 124.705 50.4817 125.251C50.1022 125.588 49.9067 126.057 49.947 126.535C49.9527 126.586 49.9144 126.63 49.8626 126.634C49.8607 126.636 49.8588 126.636 49.855 126.636C49.809 126.636 49.7668 126.599 49.7629 126.551C49.7189 126.015 49.9355 125.49 50.3591 125.112C51.0204 124.524 52.0842 124.356 53.3626 124.628C53.5332 124.664 53.7249 124.714 53.9358 124.768C55.3944 125.147 57.8383 125.785 59.9276 123.497C60.0004 123.418 60.0963 123.302 60.1959 123.164C59.8873 123.021 59.6592 122.687 59.6554 122.344C59.6497 122.079 59.7742 121.821 59.9947 121.632C60.2132 121.447 60.4873 121.364 60.7422 121.414C60.7786 121.422 60.8074 121.447 60.8151 121.485C60.9358 121.968 60.8189 122.517 60.495 123.052C60.5103 123.054 60.5237 123.054 60.539 123.054C60.794 123.054 61.1735 122.907 61.6028 122.259L62.1855 121.375C62.197 121.356 62.2143 121.345 62.2335 121.339L62.3466 119.855V119.853C62.3504 119.805 62.3906 119.769 62.4386 119.769C62.4405 119.769 62.4424 119.769 62.4443 119.769C62.4961 119.772 62.5344 119.817 62.5306 119.867C62.2986 123.397 62.36 126.962 62.7127 130.482C62.7682 128.272 62.8257 126.061 62.8813 123.85C62.8832 123.81 62.9101 123.775 62.9484 123.763C62.9868 123.758 63.0289 123.769 63.05 123.8L64.892 126.561L65.8255 122.508C65.8332 122.479 65.8542 122.454 65.8849 122.442C65.9156 122.434 65.9463 122.438 65.9712 122.456C66.5079 122.853 67.0446 123.256 67.5813 123.655L67.817 119.936C67.8209 119.89 67.8554 119.853 67.8994 119.85C67.9033 119.848 67.9071 119.848 67.909 119.848C67.9493 119.848 67.9876 119.875 67.9991 119.917C68.2215 120.706 68.6144 121.202 69.0054 121.202C69.0227 121.202 69.0399 121.202 69.0572 121.2C69.4367 121.157 69.7185 120.654 69.7587 119.948L69.9772 116.123C69.9791 116.073 70.0194 116.034 70.0692 116.034C70.1191 116.034 70.1593 116.073 70.1612 116.125C70.3299 119.765 70.5005 123.407 70.6711 127.051C70.7631 124.504 71.0353 121.962 71.4857 119.456C71.4915 119.417 71.5202 119.387 71.5586 119.379C71.6026 119.381 71.6333 119.387 71.6544 119.421C72.4939 120.733 73.3335 122.045 74.1769 123.355L74.5411 120.019C74.5449 119.981 74.5717 119.95 74.6062 119.94C74.6426 119.931 74.6829 119.944 74.7059 119.973L76.0381 121.715C76.0841 120.096 76.1281 118.478 76.1761 116.861C76.1761 116.811 76.2182 116.769 76.2681 116.769H76.27C76.3198 116.771 76.362 116.815 76.3601 116.865C76.3102 118.571 76.2623 120.276 76.2144 121.979C76.2144 122.02 76.1895 122.054 76.1511 122.066C76.1147 122.079 76.0745 122.066 76.0496 122.035L74.6982 120.27L74.3302 123.636C74.3264 123.675 74.2976 123.708 74.2612 123.715C74.219 123.725 74.1826 123.709 74.1615 123.677C73.3162 122.359 72.4709 121.04 71.6256 119.72C70.9701 123.47 70.7133 127.297 70.8609 131.096V131.098C70.8628 131.148 70.8225 131.19 70.7727 131.194C70.7708 131.194 70.7688 131.194 70.7688 131.194C70.719 131.194 70.6788 131.155 70.6768 131.105C70.4698 126.709 70.2647 122.309 70.0596 117.913L69.9427 119.959C69.8967 120.77 69.5574 121.331 69.0783 121.385C69.0553 121.387 69.0342 121.387 69.0093 121.387C68.6796 121.387 68.2713 121.123 67.9723 120.407L67.7538 123.839C67.7518 123.872 67.7327 123.902 67.702 123.918C67.6733 123.933 67.6368 123.929 67.6081 123.908C67.0637 123.501 66.5194 123.094 65.975 122.687L65.0224 126.811C65.0147 126.848 64.9859 126.875 64.9495 126.883C64.9169 126.887 64.8786 126.875 64.8556 126.844L63.0596 124.147C62.9925 126.713 62.9293 129.279 62.8641 131.844C62.8622 131.894 62.8257 131.933 62.7759 131.937C62.774 131.937 62.7721 131.937 62.7702 131.937ZM60.5965 121.588C60.4298 121.588 60.2554 121.653 60.1135 121.775C59.9391 121.923 59.8356 122.133 59.8375 122.338C59.8433 122.589 60.0158 122.895 60.3014 123.007C60.541 122.629 60.7556 122.12 60.6483 121.589C60.631 121.588 60.6138 121.588 60.5965 121.588Z" fill="#010101"/>
<path d="M58.9366 10.9008H56.6978L56.2722 11.9406H55.1279L57.2766 7.08716H58.3807L60.5332 11.9406H59.364L58.9366 10.9008ZM58.5858 10.0501L57.821 8.19055L57.0562 10.0501H58.5858Z" fill="#7A8190"/>
<path d="M64.2347 7.30321C64.5491 7.44788 64.7906 7.65043 64.9612 7.91277C65.1299 8.17705 65.2142 8.48955 65.2142 8.85027C65.2142 9.20521 65.1299 9.51578 64.9612 9.78199C64.7906 10.0482 64.5491 10.2507 64.2347 10.3896C63.9204 10.5324 63.5485 10.6037 63.123 10.6037H62.1512V11.9406H61.0356V7.08716H63.123C63.5485 7.08716 63.9204 7.16046 64.2347 7.30321ZM63.8245 9.46949C63.999 9.32288 64.0852 9.11648 64.0852 8.85027C64.0852 8.57636 63.999 8.36802 63.8245 8.22142C63.6501 8.07481 63.3952 8.00344 63.0598 8.00344H62.1512V9.68939H63.0598C63.3952 9.68939 63.6501 9.61416 63.8245 9.46949Z" fill="#7A8190"/>
<path d="M69.2067 7.30321C69.5191 7.44788 69.7625 7.65043 69.9331 7.91277C70.1018 8.17705 70.1861 8.48955 70.1861 8.85027C70.1861 9.20521 70.1018 9.51578 69.9331 9.78199C69.7625 10.0482 69.5191 10.2507 69.2067 10.3916C68.8923 10.5324 68.5205 10.6037 68.093 10.6037H67.1231V11.9406H66.0076V7.08716H68.093C68.5205 7.08716 68.8923 7.16046 69.2067 7.30321ZM68.7946 9.46949C68.969 9.32288 69.0572 9.11648 69.0572 8.85027C69.0572 8.57636 68.969 8.36802 68.7946 8.22142C68.6201 8.07481 68.3671 8.00344 68.0317 8.00344H67.1231V9.68939H68.0317C68.3671 9.68939 68.6201 9.61416 68.7946 9.46949Z" fill="#7A8190"/>
<path d="M70.9797 7.08716H72.0972V11.0262H74.5123V11.9406H70.9797V7.08716Z" fill="#7A8190"/>
<path d="M75.1411 7.08716H76.2567V11.9406H75.1411V7.08716Z" fill="#7A8190"/>
<path d="M78.3747 11.7015C77.976 11.4874 77.6655 11.1884 77.4374 10.8084C77.2093 10.4265 77.0962 9.99436 77.0962 9.51404C77.0962 9.03371 77.2093 8.60162 77.4374 8.2216C77.6655 7.84158 77.976 7.54259 78.3747 7.32847C78.7714 7.11242 79.2161 7.00439 79.7126 7.00439C80.1304 7.00439 80.508 7.0777 80.8454 7.22623C81.1827 7.37477 81.4664 7.58696 81.6964 7.86473L80.9796 8.53024C80.6537 8.15023 80.2493 7.96118 79.7682 7.96118C79.4711 7.96118 79.2027 8.0287 78.9689 8.15794C78.7331 8.29104 78.551 8.4743 78.4226 8.71157C78.2903 8.94498 78.2252 9.21504 78.2252 9.51404C78.2252 9.81496 78.2903 10.0831 78.4226 10.3184C78.551 10.5538 78.7331 10.737 78.9689 10.8701C79.2027 11.0013 79.4711 11.0669 79.7682 11.0669C80.2493 11.0669 80.6537 10.8759 80.9796 10.492L81.6964 11.1576C81.4664 11.4392 81.1808 11.6533 80.8416 11.8018C80.5023 11.9484 80.1228 12.0237 79.7068 12.0237C79.2142 12.0237 78.7714 11.9157 78.3747 11.7015Z" fill="#7A8190"/>
<path d="M85.5223 10.9008H83.2854L82.858 11.9406H81.7156L83.8643 7.08716H84.9664L87.1209 11.9406H85.9516L85.5223 10.9008ZM85.1715 10.0501L84.4086 8.19055L83.6438 10.0501H85.1715Z" fill="#7A8190"/>
<path d="M88.3802 8.00344H86.8372V7.08716H91.0387V8.00344H89.4957V11.9406H88.3802V8.00344Z" fill="#7A8190"/>
<path d="M91.6367 7.08716H92.7523V11.9406H91.6367V7.08716Z" fill="#7A8190"/>
<path d="M94.8761 11.6977C94.4755 11.4816 94.1611 11.1826 93.9349 10.8007C93.7068 10.4207 93.5938 9.9905 93.5938 9.51404C93.5938 9.0395 93.7068 8.60933 93.9349 8.22932C94.1611 7.84737 94.4755 7.54838 94.8761 7.3304C95.2786 7.11435 95.731 7.00439 96.2312 7.00439C96.7296 7.00439 97.18 7.11435 97.5787 7.3304C97.9793 7.54838 98.2937 7.84737 98.5218 8.22932C98.7537 8.60933 98.8668 9.0395 98.8668 9.51404C98.8668 9.9905 98.7537 10.4207 98.5218 10.8007C98.2937 11.1826 97.9793 11.4816 97.5787 11.6977C97.18 11.9157 96.7296 12.0237 96.2312 12.0237C95.731 12.0237 95.2786 11.9157 94.8761 11.6977ZM97.0018 10.8701C97.2299 10.739 97.41 10.5557 97.5423 10.3184C97.6726 10.0831 97.7378 9.81496 97.7378 9.51597C97.7378 9.21504 97.6726 8.94498 97.5423 8.71157C97.41 8.47623 97.2299 8.29104 97.0018 8.15987C96.7718 8.0287 96.5149 7.96311 96.2312 7.96311C95.9456 7.96311 95.6888 8.0287 95.4588 8.15987C95.2288 8.29104 95.0486 8.47623 94.9182 8.71157C94.786 8.94498 94.7208 9.21504 94.7208 9.51597C94.7208 9.81496 94.786 10.0831 94.9182 10.3184C95.0486 10.5557 95.2288 10.739 95.4588 10.8701C95.6869 11.0013 95.9456 11.0669 96.2312 11.0669C96.5149 11.0669 96.7718 11.0013 97.0018 10.8701Z" fill="#7A8190"/>
<path d="M104.128 7.08716V11.9406H103.212L100.81 8.99302V11.9406H99.7083V7.08716H100.63L103.026 10.0328V7.08716H104.128Z" fill="#7A8190"/>
<path d="M108.338 7.98994V9.2708H110.567V10.1716H108.338V11.9406H107.222V7.08716H110.864V7.98994H108.338Z" fill="#7A8190"/>
<path d="M112.553 11.6977C112.152 11.4816 111.838 11.1826 111.611 10.8007C111.383 10.4207 111.27 9.9905 111.27 9.51404C111.27 9.0395 111.383 8.60933 111.611 8.22932C111.838 7.84737 112.152 7.54838 112.553 7.3304C112.955 7.11435 113.407 7.00439 113.908 7.00439C114.406 7.00439 114.857 7.11435 115.255 7.3304C115.656 7.54838 115.97 7.84737 116.198 8.22932C116.43 8.60933 116.543 9.0395 116.543 9.51404C116.543 9.9905 116.43 10.4207 116.198 10.8007C115.97 11.1826 115.658 11.4816 115.255 11.6977C114.857 11.9157 114.408 12.0237 113.908 12.0237C113.407 12.0237 112.955 11.9157 112.553 11.6977ZM114.678 10.8701C114.906 10.739 115.087 10.5557 115.219 10.3184C115.349 10.0831 115.414 9.81496 115.414 9.51597C115.414 9.21504 115.349 8.94498 115.219 8.71157C115.087 8.47623 114.906 8.29104 114.678 8.15987C114.448 8.0287 114.191 7.96311 113.908 7.96311C113.622 7.96311 113.365 8.0287 113.135 8.15987C112.905 8.29104 112.725 8.47623 112.595 8.71157C112.464 8.94498 112.397 9.21504 112.397 9.51597C112.397 9.81496 112.464 10.0831 112.595 10.3184C112.725 10.5557 112.905 10.739 113.135 10.8701C113.365 11.0013 113.622 11.0669 113.908 11.0669C114.191 11.0669 114.448 11.0013 114.678 10.8701Z" fill="#7A8190"/>
<path d="M120.455 11.9406L119.526 10.5902H118.5V11.9406H117.385V7.08716H119.472C119.898 7.08716 120.27 7.16046 120.584 7.30321C120.898 7.44788 121.14 7.65043 121.31 7.91278C121.479 8.17705 121.563 8.48955 121.563 8.85027C121.563 9.20907 121.479 9.52157 121.306 9.78199C121.134 10.0443 120.889 10.243 120.572 10.3819L121.653 11.9425H120.455V11.9406ZM120.174 8.22142C119.999 8.07481 119.744 8.00344 119.409 8.00344H118.5V9.69518H119.409C119.744 9.69518 119.999 9.61995 120.174 9.47335C120.346 9.32481 120.434 9.11648 120.434 8.85027C120.434 8.57636 120.346 8.36802 120.174 8.22142Z" fill="#7A8190"/>
<path d="M126.833 11.9406L126.823 9.02967L125.406 11.4294H124.904L123.492 9.0914V11.9406H122.445V7.08716H123.367L125.171 10.1041L126.948 7.08716H127.864L127.877 11.9406H126.833Z" fill="#7A8190"/>
<path d="M47.3135 17.7991H136.296V19.3481H47.3135V17.7991Z" fill="#BBB9BA"/>
<path d="M139.612 132.869L118.223 137.012C118.058 136.426 117.791 135.793 117.4 135.102C116.087 132.776 113.988 130.984 111.585 129.842C102.532 125.546 102.806 123.144 91.0024 109.026C88.2269 105.704 89.7604 102.548 88.9937 98.0403C88.9937 98.0403 89.0224 97.2802 89.0301 96.9291C89.0742 95.1467 89.1527 93.6132 89.7968 92.4943C89.9808 92.2667 90.2472 92.0931 90.5462 92.041C90.7437 92.0121 90.9507 92.014 91.1558 92.0835C93.0304 92.7316 94.5427 93.7521 95.6544 95.1043C96.5074 96.1518 97.1399 97.3844 97.552 98.8022C98.1597 100.889 99.0682 102.894 100.548 104.477C103.352 107.481 107.366 109.543 111.571 105.631C111.985 105.264 112.336 104.555 112.606 103.912C112.965 103.061 112.94 102.109 112.608 101.246C111.891 99.3828 111.305 97.4384 110.87 95.4689C110.672 94.57 110.203 93.7405 109.453 93.2139C108.257 92.3728 107.224 91.445 106.335 90.5055C105.551 89.6799 104.437 89.2575 103.31 89.3983C95.9822 90.303 91.3647 89.5719 90.9162 86.4488C90.8932 85.6425 91.1999 85.112 91.7059 84.7417C91.8592 84.6356 92.0241 84.5488 92.1889 84.4639C92.6048 84.2633 93.0879 84.1128 93.6073 84.0028C93.9811 83.9064 94.4009 83.8196 94.8724 83.7135C95.5452 83.563 96.3253 83.4376 97.2684 83.2274C102.219 82.0545 104.125 78.7386 106.34 77.695C107.473 77.1645 108.867 77.6429 109.798 78.5013C118.807 87.641 125.993 89.705 129.294 92.938C130.356 93.9739 130.749 95.6599 130.678 97.2262C129.33 117.899 128.905 121.412 139.612 132.869Z" fill="#F9A872"/>
<path d="M90.6248 98.067C90.1495 98.0593 89.5457 98.0516 88.9937 98.04C89.0071 97.66 89.0224 97.28 89.0301 96.9289C89.0742 95.1465 89.1527 93.6129 89.7968 92.4941C89.9808 92.2665 90.2472 92.0929 90.5462 92.0408C90.7858 93.5743 91.1903 95.9181 91.3839 97.1854C91.4548 97.6677 91.0849 98.0709 90.6248 98.067Z" fill="white"/>
<path d="M94.4754 86.08C94.4754 86.08 92.3344 86.3096 90.916 86.4485C90.893 85.6421 91.2016 85.1117 91.7057 84.7413C91.859 84.6371 92.0239 84.5503 92.1887 84.4635C92.6008 84.2783 93.0647 84.1394 93.6071 84.0025C93.9809 83.906 94.4007 83.8192 94.8722 83.7131L94.4754 86.08Z" fill="#FBB98D"/>
<path d="M140.409 128.885L138.653 125.393C138.331 124.753 137.553 124.495 136.915 124.821L115.236 135.982C114.6 136.308 114.345 137.089 114.667 137.731L117.007 142.384L139.84 130.633C140.476 130.309 140.731 129.527 140.409 128.885Z" fill="#E9E6E7"/>
<mask id="mask1_194_4744" style="mask-type:luminance" maskUnits="userSpaceOnUse" x="113" y="125" width="33" height="25">
<path d="M113.712 125.185H145.5V149.383H113.712V125.185Z" fill="white"/>
</mask>
<g mask="url(#mask1_194_4744)">
<path d="M114.019 140.27L117.966 148.188C118.416 149.084 119.501 149.442 120.386 148.991L144.218 136.732C145.105 136.281 145.46 135.189 145.011 134.296L141.065 126.375C140.61 125.474 139.525 125.116 138.638 125.567L114.807 137.826C113.921 138.275 113.565 139.369 114.019 140.27Z" fill="#4B4B52"/>
</g>
<path d="M84.2935 86.3425C95.2766 95.9799 110.427 105.569 110.427 105.569L132.642 120.347C132.968 120.565 133.407 120.476 133.622 120.15L135.686 117.029C135.901 116.703 135.811 116.263 135.485 116.045L113.271 101.269C113.271 101.269 98.5696 90.9992 85.4665 84.5659L84.2935 86.3425Z" fill="#6DB4E2"/>
<path d="M108.311 104.19C109.647 105.066 110.427 105.569 110.427 105.569L113.296 107.479L116.141 103.177L113.271 101.269C113.271 101.269 112.505 100.743 111.18 99.8477L108.311 104.19Z" fill="#568FB4"/>
<path d="M133.923 116.312C133.923 116.312 134.686 112.606 130.218 109.633C125.75 106.661 121.048 103.536 121.048 103.536L118.98 103.107C118.98 103.107 117.327 102 124.724 106.927C126.089 107.837 129.692 110.241 128.197 112.504L133.923 116.312Z" fill="#6DB4E2"/>
<path d="M84.4142 86.4488L85.6122 84.6374C83.5287 83.6073 81.6675 82.7952 80.1743 82.311C81.196 83.509 82.6623 84.9191 84.4142 86.4488Z" fill="#568FB4"/>
<mask id="mask2_194_4744" style="mask-type:luminance" maskUnits="userSpaceOnUse" x="88" y="91" width="15" height="5">
<path d="M88.8708 91.8845H102.426V95.0616H88.8708V91.8845Z" fill="white"/>
</mask>
<g mask="url(#mask2_194_4744)">
<mask id="mask3_194_4744" style="mask-type:luminance" maskUnits="userSpaceOnUse" x="88" y="92" width="15" height="32">
<path d="M102.537 106.244C101.826 105.733 101.157 105.131 100.548 104.477C99.068 102.893 98.1575 100.889 97.5518 98.802C97.1397 97.3842 96.5072 96.1515 95.6542 95.1041C94.5425 93.7518 93.0301 92.7314 91.1555 92.0832C90.9504 92.0138 90.7434 92.0119 90.546 92.0408C90.247 92.0929 89.9805 92.2665 89.7965 92.4941C89.1544 93.6129 89.0739 95.1465 89.0298 96.9289C89.0222 97.28 88.9934 98.04 88.9934 98.04C89.7601 102.548 88.2267 105.704 91.0041 109.026C96.8656 116.038 99.7484 120.156 102.275 123.055L102.539 121.991V106.244H102.537Z" fill="white"/>
</mask>
<g mask="url(#mask3_194_4744)">
<path d="M102.313 89.6141L92.9593 94.5697L88.0198 85.1812L97.3755 80.2256L102.313 89.6141Z" fill="#F9A872"/>
</g>
</g>
<mask id="mask4_194_4744" style="mask-type:luminance" maskUnits="userSpaceOnUse" x="92" y="91" width="11" height="14">
<path d="M92.6125 91.8845H102.758V104.444H92.6125V91.8845Z" fill="white"/>
</mask>
<g mask="url(#mask4_194_4744)">
<mask id="mask5_194_4744" style="mask-type:luminance" maskUnits="userSpaceOnUse" x="88" y="92" width="15" height="32">
<path d="M102.538 106.244C101.826 105.733 101.157 105.131 100.548 104.477C99.0682 102.893 98.1577 100.889 97.552 98.802C97.1399 97.3842 96.5074 96.1515 95.6544 95.1041C94.5427 93.7518 93.0304 92.7314 91.1558 92.0832C90.9507 92.0138 90.7437 92.0119 90.5462 92.0408C90.2472 92.0929 89.9808 92.2665 89.7968 92.4941C89.1547 93.6129 89.0742 95.1465 89.0301 96.9289C89.0224 97.28 88.9937 98.04 88.9937 98.04C89.7604 102.548 88.2269 105.704 91.0043 109.026C96.8658 116.038 99.7487 120.156 102.275 123.055L102.539 121.991V106.244H102.538Z" fill="white"/>
</mask>
<g mask="url(#mask5_194_4744)">
<path d="M107.251 99.0028L97.8971 103.958L92.9595 94.5699L102.313 89.6143L107.251 99.0028Z" fill="#F9A872"/>
</g>
</g>
<mask id="mask6_194_4744" style="mask-type:luminance" maskUnits="userSpaceOnUse" x="97" y="98" width="6" height="16">
<path d="M97.5193 98.5186H102.758V113.827H97.5193V98.5186Z" fill="white"/>
</mask>
<g mask="url(#mask6_194_4744)">
<mask id="mask7_194_4744" style="mask-type:luminance" maskUnits="userSpaceOnUse" x="88" y="92" width="15" height="32">
<path d="M102.537 106.244C101.826 105.733 101.157 105.131 100.548 104.477C99.068 102.893 98.1575 100.889 97.5518 98.802C97.1397 97.3842 96.5072 96.1515 95.6542 95.1041C94.5425 93.7518 93.0301 92.7314 91.1555 92.0832C90.9504 92.0138 90.7434 92.0119 90.546 92.0408C90.247 92.0929 89.9805 92.2665 89.7965 92.4941C89.1544 93.6129 89.0739 95.1465 89.0298 96.9289C89.0222 97.28 88.9934 98.04 88.9934 98.04C89.7601 102.548 88.2267 105.704 91.0041 109.026C96.8656 116.038 99.7484 120.156 102.275 123.055L102.539 121.991V106.244H102.537Z" fill="white"/>
</mask>
<g mask="url(#mask7_194_4744)">
<path d="M112.19 108.391L102.834 113.347L97.8967 103.958L107.251 99.0027L112.19 108.391Z" fill="#F9A872"/>
</g>
</g>
<mask id="mask8_194_4744" style="mask-type:luminance" maskUnits="userSpaceOnUse" x="88" y="91" width="6" height="9">
<path d="M88.8708 91.8845H93.1031V99.9999H88.8708V91.8845Z" fill="white"/>
</mask>
<g mask="url(#mask8_194_4744)">
<mask id="mask9_194_4744" style="mask-type:luminance" maskUnits="userSpaceOnUse" x="88" y="92" width="15" height="32">
<path d="M102.537 106.244C101.826 105.733 101.157 105.131 100.548 104.477C99.068 102.893 98.1575 100.889 97.5518 98.802C97.1397 97.3842 96.5072 96.1515 95.6542 95.1041C94.5425 93.7518 93.0301 92.7314 91.1555 92.0832C90.9504 92.0138 90.7434 92.0119 90.546 92.0408C90.247 92.0929 89.9805 92.2665 89.7965 92.4941C89.1544 93.6129 89.0739 95.1465 89.0298 96.9289C89.0222 97.28 88.9934 98.04 88.9934 98.04C89.7601 102.548 88.2267 105.704 91.0041 109.026C96.8656 116.038 99.7484 120.156 102.275 123.055L102.539 121.991V106.244H102.537Z" fill="white"/>
</mask>
<g mask="url(#mask9_194_4744)">
<path d="M92.9594 94.5696L83.6036 99.5253L78.666 90.1368L88.0199 85.1812L92.9594 94.5696Z" fill="#F9A872"/>
</g>
</g>
<mask id="mask10_194_4744" style="mask-type:luminance" maskUnits="userSpaceOnUse" x="88" y="94" width="11" height="16">
<path d="M88.8708 94.5679H98.01V109.383H88.8708V94.5679Z" fill="white"/>
</mask>
<g mask="url(#mask10_194_4744)">
<mask id="mask11_194_4744" style="mask-type:luminance" maskUnits="userSpaceOnUse" x="88" y="92" width="15" height="32">
<path d="M102.537 106.244C101.826 105.733 101.157 105.131 100.548 104.477C99.068 102.893 98.1575 100.889 97.5518 98.802C97.1397 97.3842 96.5072 96.1515 95.6542 95.1041C94.5425 93.7518 93.0301 92.7314 91.1555 92.0832C90.9504 92.0138 90.7434 92.0119 90.546 92.0408C90.247 92.0929 89.9805 92.2665 89.7965 92.4941C89.1544 93.6129 89.0739 95.1465 89.0298 96.9289C89.0222 97.28 88.9934 98.04 88.9934 98.04C89.7601 102.548 88.2267 105.704 91.0041 109.026C96.8656 116.038 99.7484 120.156 102.275 123.055L102.539 121.991V106.244H102.537Z" fill="white"/>
</mask>
<g mask="url(#mask11_194_4744)">
<path d="M97.8969 103.958L88.5411 108.914L83.6035 99.5255L92.9593 94.5698L97.8969 103.958Z" fill="#F9A872"/>
</g>
</g>
<mask id="mask12_194_4744" style="mask-type:luminance" maskUnits="userSpaceOnUse" x="88" y="103" width="15" height="16">
<path d="M88.8708 103.95H102.758V118.765H88.8708V103.95Z" fill="white"/>
</mask>
<g mask="url(#mask12_194_4744)">
<mask id="mask13_194_4744" style="mask-type:luminance" maskUnits="userSpaceOnUse" x="88" y="92" width="15" height="32">
<path d="M102.537 106.244C101.826 105.733 101.157 105.131 100.548 104.477C99.068 102.893 98.1575 100.889 97.5518 98.802C97.1397 97.3842 96.5072 96.1515 95.6542 95.1041C94.5425 93.7518 93.0301 92.7314 91.1555 92.0832C90.9504 92.0138 90.7434 92.0119 90.546 92.0408C90.247 92.0929 89.9805 92.2665 89.7965 92.4941C89.1544 93.6129 89.0739 95.1465 89.0298 96.9289C89.0222 97.28 88.9934 98.04 88.9934 98.04C89.7601 102.548 88.2267 105.704 91.0041 109.026C96.8656 116.038 99.7484 120.156 102.275 123.055L102.539 121.991V106.244H102.537Z" fill="white"/>
</mask>
<g mask="url(#mask13_194_4744)">
<path d="M102.834 113.347L93.4805 118.302L88.541 108.914L97.8968 103.958L102.834 113.347Z" fill="#F9A872"/>
</g>
</g>
<mask id="mask14_194_4744" style="mask-type:luminance" maskUnits="userSpaceOnUse" x="93" y="113" width="10" height="11">
<path d="M93.103 113.333H102.758V123.21H93.103V113.333Z" fill="white"/>
</mask>
<g mask="url(#mask14_194_4744)">
<mask id="mask15_194_4744" style="mask-type:luminance" maskUnits="userSpaceOnUse" x="88" y="92" width="15" height="32">
<path d="M102.537 106.244C101.826 105.733 101.157 105.131 100.548 104.477C99.068 102.893 98.1575 100.889 97.5518 98.802C97.1397 97.3842 96.5072 96.1515 95.6542 95.1041C94.5425 93.7518 93.0301 92.7314 91.1555 92.0832C90.9504 92.0138 90.7434 92.0119 90.546 92.0408C90.247 92.0929 89.9805 92.2665 89.7965 92.4941C89.1544 93.6129 89.0739 95.1465 89.0298 96.9289C89.0222 97.28 88.9934 98.04 88.9934 98.04C89.7601 102.548 88.2267 105.704 91.0041 109.026C96.8656 116.038 99.7484 120.156 102.275 123.055L102.539 121.991V106.244H102.537Z" fill="white"/>
</mask>
<g mask="url(#mask15_194_4744)">
<path d="M107.774 122.735L98.4181 127.691L93.4805 118.302L102.834 113.347L107.774 122.735Z" fill="#F9A872"/>
</g>
</g>
<mask id="mask16_194_4744" style="mask-type:luminance" maskUnits="userSpaceOnUse" x="88" y="108" width="6" height="16">
<path d="M88.8708 108.889H93.5938V123.21H88.8708V108.889Z" fill="white"/>
</mask>
<g mask="url(#mask16_194_4744)">
<mask id="mask17_194_4744" style="mask-type:luminance" maskUnits="userSpaceOnUse" x="88" y="92" width="15" height="32">
<path d="M102.537 106.244C101.826 105.733 101.157 105.131 100.548 104.477C99.068 102.893 98.1575 100.889 97.5518 98.802C97.1397 97.3842 96.5072 96.1515 95.6542 95.1041C94.5425 93.7518 93.0301 92.7314 91.1555 92.0832C90.9504 92.0138 90.7434 92.0119 90.546 92.0408C90.247 92.0929 89.9805 92.2665 89.7965 92.4941C89.1544 93.6129 89.0739 95.1465 89.0298 96.9289C89.0222 97.28 88.9934 98.04 88.9934 98.04C89.7601 102.548 88.2267 105.704 91.0041 109.026C96.8656 116.038 99.7484 120.156 102.275 123.055L102.539 121.991V106.244H102.537Z" fill="white"/>
</mask>
<g mask="url(#mask17_194_4744)">
<path d="M93.4806 118.302L84.1249 123.258L79.1873 113.869L88.5411 108.914L93.4806 118.302Z" fill="#F9A872"/>
</g>
</g>
<mask id="mask18_194_4744" style="mask-type:luminance" maskUnits="userSpaceOnUse" x="88" y="118" width="11" height="6">
<path d="M88.8708 118.272H98.5007V123.21H88.8708V118.272Z" fill="white"/>
</mask>
<g mask="url(#mask18_194_4744)">
<mask id="mask19_194_4744" style="mask-type:luminance" maskUnits="userSpaceOnUse" x="88" y="92" width="15" height="32">
<path d="M102.537 106.244C101.826 105.733 101.157 105.131 100.548 104.477C99.068 102.893 98.1575 100.889 97.5518 98.802C97.1397 97.3842 96.5072 96.1515 95.6542 95.1041C94.5425 93.7518 93.0301 92.7314 91.1555 92.0832C90.9504 92.0138 90.7434 92.0119 90.546 92.0408C90.247 92.0929 89.9805 92.2665 89.7965 92.4941C89.1544 93.6129 89.0739 95.1465 89.0298 96.9289C89.0222 97.28 88.9934 98.04 88.9934 98.04C89.7601 102.548 88.2267 105.704 91.0041 109.026C96.8656 116.038 99.7484 120.156 102.275 123.055L102.539 121.991V106.244H102.537Z" fill="white"/>
</mask>
<g mask="url(#mask19_194_4744)">
<path d="M98.4184 127.691L89.0645 132.647L84.125 123.258L93.4808 118.302L98.4184 127.691Z" fill="#F9A872"/>
</g>
</g>
<path d="M90.6248 98.067C90.1495 98.0593 89.5457 98.0516 88.9937 98.04C89.0071 97.66 89.0224 97.28 89.0301 96.9289C89.0742 95.1465 89.1527 93.6129 89.7968 92.4941C89.9808 92.2665 90.2472 92.0929 90.5462 92.0408C90.7858 93.5743 91.1903 95.9181 91.3839 97.1854C91.4548 97.6677 91.0849 98.0709 90.6248 98.067Z" fill="#FBB98D"/>
<path d="M67.589 108.762C66.4735 110.052 65.3042 111.321 64.0967 112.556C57.8576 119.055 51.5859 123.372 48.8238 128.007C49.8301 147.951 27.1873 142.002 21.9008 152.095L21.828 152.002C21.828 151.985 21.828 151.966 21.7916 151.948L10.9446 135.76L11.0558 135.704C11.0558 135.704 26.4743 104.306 30.9557 99.9595C33.4245 97.5656 38.2432 98.6902 39.7977 98.3391L39.8897 105.613L39.7345 115.779V115.816C40.758 115.042 41.5995 114.435 44.0875 111.968C45.2203 110.862 46.447 109.684 47.6546 108.468C49.995 106.148 52.3909 103.754 54.44 101.782C56.0865 100.199 57.5298 98.8542 58.5361 98.0073C61.3308 95.7195 64.2251 95.7948 66.4926 97.529C67.4069 98.2292 68.1755 99.186 68.6873 100.311C69.9447 102.841 69.7531 106.105 67.589 108.762Z" fill="#F9A872"/>
<path d="M6.25032 137.351L9.32482 135.303C9.88835 134.926 10.6512 135.081 11.0269 135.646L21.7091 151.765C22.0848 152.33 21.9314 153.096 21.366 153.472L17.2718 156.203L5.90913 139.058C5.53344 138.493 5.68678 137.727 6.25032 137.351Z" fill="#E9E6E7"/>
<mask id="mask20_194_4744" style="mask-type:luminance" maskUnits="userSpaceOnUse" x="0" y="134" width="22" height="26">
<path d="M0.5 134.568H21.9525V160H0.5V134.568Z" fill="white"/>
</mask>
<g mask="url(#mask20_194_4744)">
<path d="M20.722 155.866L15.403 159.514C14.6152 160.037 13.5533 159.822 13.03 159.035L1.07896 141.003C0.557598 140.216 0.772276 139.149 1.55815 138.625L6.87719 134.979C7.67074 134.45 8.73455 134.664 9.25591 135.451L21.207 153.484C21.7303 154.271 21.5156 155.338 20.722 155.866Z" fill="#4B4B52"/>
</g>
<path d="M58.4728 101.416C61.1448 98.9389 61.9115 97.7892 62.7874 98.7402L66.9047 103.216C67.2688 103.609 67.2439 104.226 66.851 104.589L63.7899 107.425C61.8597 109.215 58.743 108.777 57.4818 106.31C56.648 104.676 57.1272 102.662 58.4728 101.416Z" fill="#FBB98D"/>
<path d="M39.7345 115.779C38.1416 117.197 36.6063 117.805 35.6556 117.197C34.1375 116.238 34.795 112.446 37.1008 108.761C37.8867 107.509 39.0119 106.441 39.8897 105.613L39.7345 115.779Z" fill="#E69966"/>
</svg>
