<svg width="207" height="176" viewBox="0 0 207 176" fill="none" xmlns="http://www.w3.org/2000/svg">
<path d="M56.1174 101.432C56.1322 101.638 56.1533 101.814 56.1851 101.975C55.961 102.045 55.7263 102.264 55.7263 102.512L55.6925 103.104H55.1873V102.512C55.1851 101.988 55.6249 101.54 56.1174 101.432Z" fill="#193564"/>
<path d="M59.5911 101.57C59.5911 101.57 59.627 101.517 59.6693 101.434C60.1935 101.512 60.6438 101.964 60.6438 102.514V103.104H60.1069L60.1047 102.514C60.1047 102.232 59.849 102.003 59.5784 101.966C59.5911 101.748 59.5911 101.57 59.5911 101.57Z" fill="#193564"/>
<path d="M72.0103 72.0687C72.0103 72.0687 71.8983 72.8092 71.4522 73.4118L73.8706 75.7141L73.989 73.0851C73.989 73.0851 75.4498 73.5879 76.0691 73.1423C76.6885 72.6967 77.0183 71.6273 76.7794 70.8868C76.7794 70.8868 76.5258 70.5494 77.0712 70.4602C77.6166 70.369 77.1325 69.7961 76.7625 69.4884C76.3926 69.1807 76.3757 68.1028 76.3757 68.1028L74.1771 67.6848L71.1013 69.6412C71.1013 69.6412 71.8645 70.9568 72.0103 72.0687Z" fill="#F2ADAB"/>
<path d="M74.9893 73.5625L74.7864 72.4443L73.3235 73.397L73.8731 75.7141L74.9364 75.0266L74.9893 73.5625Z" fill="#F2ADAB"/>
<path d="M58.2441 98.6393C58.2842 99.3459 59.4807 99.9994 59.7725 100.479C60.0663 100.959 59.6393 101.568 59.6393 101.568C59.6393 101.568 59.6456 102.187 59.5505 102.525C59.4575 102.86 59.0854 102.896 58.7197 102.58C58.3519 102.264 58.1933 102.802 57.7177 102.709C57.2399 102.618 57.1554 102.359 56.555 102.421C55.5043 102.527 56.3922 98.4611 56.3922 98.4611L58.2441 98.6393Z" fill="#F2ADAB"/>
<path d="M94.0717 87.4886C94.7735 87.5565 95.5938 86.4637 96.1096 86.2452C96.6254 86.0266 97.1623 86.5401 97.1623 86.5401C97.1623 86.5401 97.7754 86.6271 98.0904 86.7714C98.4075 86.9136 98.3884 87.287 98.0227 87.6053C97.657 87.9215 98.1622 88.1613 98.0016 88.6217C97.8409 89.08 97.5724 89.1246 97.5428 89.7315C97.4921 90.7903 93.6235 89.3007 93.6235 89.3007L94.0717 87.4886Z" fill="#F2ADAB"/>
<path d="M86.933 117.378L86.7681 119.714L89.7403 119.793L89.92 117.236L86.933 117.378Z" fill="#E4E8FF"/>
<path d="M71.2429 128.671L70.8687 131.627L67.4695 131.985L67.8775 128.374L71.2429 128.671Z" fill="#E4E8FF"/>
<path d="M71.4525 73.4119C71.4525 73.4119 72.3193 74.1906 73.7716 74.8908C73.7716 74.8908 74.5918 74.3264 74.9892 73.5646L76.1392 74.1524C76.1392 74.1524 77.8684 80.0959 77.8579 83.8559C77.8494 87.6181 79.9232 93.4151 80.2657 97.9348C80.2657 97.9348 78.2849 102.238 73.9618 102.238C69.6366 102.238 65.8738 97.3301 65.8738 97.3301C65.8738 97.3301 66.7447 92.9398 67.2225 91.045C67.7003 89.1501 67.9751 85.8166 67.2225 83.8665C66.4699 81.9186 69.4506 76.8685 70.4061 74.3922L71.4525 73.4119Z" fill="#E4E8FF"/>
<path d="M56.0415 98.2043L56.0457 98.947L58.6988 99.0806L58.7284 98.2255L56.0415 98.2043Z" fill="#E4E8FF"/>
<path d="M93.3147 89.6127L94.0461 89.7188L94.5725 87.1025L93.7354 86.9455L93.3147 89.6127Z" fill="#E4E8FF"/>
<path d="M79.4324 16.3324C80.0602 13.5802 82.5124 11.5283 85.4403 11.5283C85.9793 11.5283 86.5015 11.5962 86.9983 11.7278C88.4442 8.6192 91.5814 6.46758 95.2216 6.46758C96.1623 6.46758 97.0692 6.61187 97.9212 6.87923C99.8808 3.61997 103.439 1.44077 107.506 1.44077C112.343 1.44077 116.463 4.52603 118.023 8.84412C119.126 8.22452 120.399 7.87229 121.754 7.87229C125.995 7.87229 129.432 11.3246 129.432 15.5854C129.432 15.8379 129.419 16.0862 129.394 16.3324H79.4324Z" fill="#E4E8FF"/>
<path d="M16.821 51.1169C17.229 49.3324 18.8166 48.002 20.7171 48.002C21.0659 48.002 21.4041 48.0487 21.7255 48.1314C22.6619 46.1177 24.6956 44.7215 27.0548 44.7215C27.6636 44.7215 28.2513 44.8149 28.8051 44.9889C30.0735 42.8754 32.382 41.4644 35.016 41.4644C38.151 41.4644 40.821 43.4632 41.8335 46.262C42.5481 45.861 43.3725 45.6318 44.2519 45.6318C47.0001 45.6318 49.2261 47.8683 49.2261 50.6289C49.2261 50.7944 49.2198 50.9557 49.2029 51.1148H16.821V51.1169Z" fill="#E4E8FF"/>
<path d="M15.4636 120.338C15.7406 119.131 16.8145 118.229 18.1019 118.229C18.3386 118.229 18.5669 118.258 18.7847 118.316C19.4189 116.954 20.7972 116.007 22.3953 116.007C22.8076 116.007 23.205 116.071 23.5813 116.188C24.4395 114.757 26.0039 113.8 27.7881 113.8C29.9126 113.8 31.7201 115.154 32.405 117.049C32.8912 116.777 33.4493 116.622 34.0454 116.622C35.9057 116.622 37.4151 118.14 37.4151 120.009C37.4151 120.119 37.4088 120.23 37.3982 120.336H15.4636V120.338Z" fill="#E4E8FF"/>
<path d="M107.927 48.7807C108.299 47.1468 109.753 45.9267 111.493 45.9267C111.812 45.9267 112.121 45.9691 112.417 46.0455C113.275 44.2016 115.138 42.9242 117.298 42.9242C117.856 42.9242 118.393 43.0091 118.9 43.1661C120.063 41.233 122.175 39.9387 124.589 39.9387C127.46 39.9387 129.904 41.7699 130.832 44.3331C131.487 43.9661 132.242 43.756 133.047 43.756C135.563 43.756 137.603 45.8058 137.603 48.3351C137.603 48.4836 137.594 48.6321 137.582 48.7807H107.927Z" fill="#E4E8FF"/>
<path d="M71.4523 73.4119C71.4523 73.4119 66.6811 74.6468 66.0807 75.1858C65.4761 75.7226 59.8847 82.5255 59.2505 83.7159C58.6184 84.9063 57.5931 86.6802 56.8765 90.0668C56.2634 92.9674 55.6504 98.4335 55.6504 98.4335L59.0222 98.6117L61.6921 87.8239L66.0088 83.5737C66.0088 83.5737 67.1271 93.2348 65.4085 97.0839C65.4085 97.0839 69.2918 99.382 74.6909 99.1273C74.6909 99.1273 73.9997 87.5969 72.6763 84.3249C71.3551 81.055 71.2621 77.1528 71.4523 73.4119Z" fill="#2878B5"/>
<path d="M74.9888 73.5625C74.9888 73.5625 76.1176 80.8492 75.8492 84.8596C75.5807 88.8721 75.4919 90.2662 76.0606 93.2475C76.6292 96.2309 77.0541 98.9152 77.0541 98.9152C77.0541 98.9152 79.2442 98.5544 81.1848 97.4829C81.1848 97.4829 80.7113 92.9144 79.5888 90.2196C77.7264 85.7529 78.4049 81.7298 78.4049 81.7298C78.4049 81.7298 80.9798 85.7678 82.635 87.3995C83.3918 88.1443 85.6918 88.5496 87.0913 88.8C89.2729 89.1883 93.374 89.9416 93.374 89.9416L94.135 86.8818C94.135 86.8818 87.013 85.1227 85.5798 84.4034L79.0539 74.5386C79.0539 74.5365 77.9674 73.4204 74.9888 73.5625Z" fill="#2878B5"/>
<path d="M63.6832 112.128H52.1494C51.6526 112.128 51.251 111.723 51.251 111.224V104.422H64.5838V111.224C64.5838 111.723 64.1821 112.128 63.6832 112.128Z" fill="#2878B5"/>
<path d="M63.9199 135.949H80.2651V175.945H63.9199V135.949Z" fill="#2878B5"/>
<path d="M42.3811 143.475H58.7242V175.943H42.3811V143.475Z" fill="#2878B5"/>
<path d="M21.2114 149.975H37.5566V175.945H21.2114V149.975Z" fill="#2878B5"/>
<path d="M85.6074 124.005H101.953V175.945H85.6074V124.005Z" fill="#2878B5"/>
<path d="M107.521 105.576H123.866V175.945H107.521V105.576Z" fill="#2878B5"/>
<path d="M129.43 79.6588H145.775V175.945H129.43V79.6588Z" fill="#2878B5"/>
<path d="M150.971 57.0859H167.314V175.943H150.971V57.0859Z" fill="#2878B5"/>
<path fill-rule="evenodd" clip-rule="evenodd" d="M180.755 39.5101H195.365V46.2917H180.755V39.5101Z" fill="#193564"/>
<path fill-rule="evenodd" clip-rule="evenodd" d="M196.545 45.8737C196.545 44.9888 195.83 44.2695 194.946 44.2695H181.176C180.295 44.2695 179.578 44.9867 179.578 45.8737C179.578 46.7585 180.292 47.4778 181.176 47.4778H194.946C195.83 47.4778 196.545 46.7585 196.545 45.8737Z" fill="#193564"/>
<path d="M73.7715 74.8909C73.7715 74.8909 73.467 75.502 72.9343 75.8181C72.9343 75.8181 73.6679 76.5035 73.9702 76.5396C74.2746 76.5757 74.6107 75.8181 74.6107 75.8181C74.6107 75.8181 74.4606 75.2092 73.7715 74.8909Z" fill="#FFBD00"/>
<path d="M73.7268 75.9009C73.7268 75.9009 73.0249 78.8503 70.4586 80.5415C67.8901 82.2327 66.4462 83.5801 66.4124 88.7767C66.4124 88.7767 66.6238 92.2014 64.5986 93.8905L64.7212 97.9242C64.7212 97.9242 67.4018 96.7826 68.4376 95.0405C69.4713 93.2985 69.2071 88.7767 69.1627 87.8112C69.1204 86.8478 69.0612 84.0108 71.2746 82.0375C73.4879 80.062 74.2109 78.2838 74.3504 75.9942L73.7268 75.9009Z" fill="#FFBD00"/>
<path d="M57.9164 109.542C58.2039 109.542 58.4386 109.306 58.4386 109.015V108.574C58.4386 108.283 58.2061 108.048 57.9164 108.048C57.6268 108.048 57.3943 108.283 57.3943 108.574V109.015C57.3943 109.306 57.6289 109.542 57.9164 109.542Z" fill="#FFBD00"/>
<mask id="mask0_194_1839" style="mask-type:luminance" maskUnits="userSpaceOnUse" x="0" y="47" width="207" height="129">
<path d="M0 47.2592H207V176H0V47.2592Z" fill="white"/>
</mask>
<g mask="url(#mask0_194_1839)">
<path d="M206.951 47.4354H169.917L175.842 57.7479L155.592 67.9267L135.091 113.856L111.865 122.093L90.5266 146.068L68.8584 142.071L49.1393 158.76L28.1349 155.876L0.0507812 175.943H15.6477L30.6336 165.632L51.9678 168.563L71.4903 152.042L93.9745 156.186L117.201 130.092L141.932 121.32L162.693 74.8124L180.569 65.9746L188.433 79.6588L206.951 47.4354Z" fill="#FFBD00"/>
</g>
<path d="M179.77 26.8952C178.692 26.8952 177.44 26.6194 176.428 25.83C175.193 24.8667 174.54 23.3686 174.483 21.374C174.436 19.6786 174.887 18.4734 175.821 17.7901C177.269 16.7292 179.281 17.4273 179.366 17.457C179.694 17.5737 179.863 17.9323 179.749 18.2612C179.632 18.588 179.275 18.7598 178.95 18.6452C178.928 18.6389 177.463 18.1402 176.554 18.8108C175.975 19.2373 175.7 20.0881 175.736 21.338C175.781 22.94 176.273 24.1155 177.195 24.837C178.298 25.6964 179.804 25.7494 180.757 25.533C181.095 25.4566 181.429 25.6688 181.505 26.0083C181.581 26.3478 181.37 26.6852 181.032 26.7616C180.668 26.8443 180.235 26.8952 179.77 26.8952Z" fill="#FFBD00"/>
<path fill-rule="evenodd" clip-rule="evenodd" d="M197.033 13.8562C196.641 13.8562 196.147 13.8562 195.58 13.8562H180.491C179.903 13.8562 179.391 13.8562 178.988 13.8562C178.415 13.8562 177.95 14.323 177.95 14.9002C177.95 15.3394 178.225 15.715 178.611 15.8677V18.2804C178.611 23.9077 180.865 28.7584 184.108 30.9652C184.412 31.2368 185.036 31.85 185.581 32.7497C185.826 33.155 186.078 33.5857 186.069 34.0462C186.061 34.5088 185.782 34.9331 185.53 35.3405C184.966 36.2551 184.351 36.8853 184.072 37.1463C182.241 37.785 180.782 38.1966 180.755 38.9648V39.7562H195.365V38.9648C195.339 38.203 193.9 37.8847 192.084 37.2715C192.014 37.2121 191.213 36.514 190.49 35.3405C190.238 34.9331 189.959 34.5109 189.951 34.0462C189.942 33.5878 190.192 33.1571 190.439 32.7518C190.91 31.9731 191.443 31.4065 191.773 31.0925C195.109 28.9536 197.449 24.0435 197.46 18.327C197.46 18.327 197.46 17.0412 197.46 15.8465C197.819 15.6831 198.068 15.3224 198.068 14.9002C198.068 14.323 197.605 13.8562 197.033 13.8562Z" fill="#FFBD00"/>
<path d="M196.301 26.8952C195.836 26.8952 195.405 26.8443 195.035 26.7616C194.699 26.6852 194.488 26.3478 194.564 26.0083C194.64 25.6688 194.976 25.4566 195.312 25.533C196.265 25.7494 197.77 25.6964 198.874 24.837C199.798 24.1155 200.288 22.94 200.335 21.338C200.369 20.0881 200.094 19.2373 199.517 18.8108C198.603 18.1381 197.136 18.6389 197.119 18.6452C196.794 18.7577 196.437 18.5858 196.322 18.2591C196.208 17.9302 196.377 17.5716 196.703 17.457C196.79 17.4273 198.8 16.7292 200.25 17.7901C201.185 18.4734 201.635 19.6807 201.586 21.374C201.529 23.3686 200.876 24.8667 199.641 25.83C198.631 26.6194 197.379 26.8952 196.301 26.8952Z" fill="#FFBD00"/>
<path fill-rule="evenodd" clip-rule="evenodd" d="M183.78 40.9254H192.34V44.3607H183.78V40.9254Z" fill="#E4E8FF"/>
<path d="M184.59 9.90932C184.486 9.90932 184.389 9.85203 184.343 9.7523L180.77 1.96063C180.707 1.82483 180.766 1.66357 180.901 1.59991C181.036 1.53625 181.199 1.59567 181.263 1.73147L184.835 9.52313C184.897 9.65894 184.837 9.82232 184.702 9.88598C184.666 9.90084 184.628 9.90932 184.59 9.90932Z" fill="#FFBD00"/>
<path d="M191.539 9.82231C191.503 9.82231 191.467 9.81382 191.431 9.79897C191.294 9.73955 191.23 9.57829 191.29 9.44249L194.666 1.5617C194.725 1.42377 194.885 1.36012 195.021 1.41953C195.16 1.47894 195.224 1.64021 195.162 1.77601L191.786 9.6568C191.744 9.76077 191.643 9.82231 191.539 9.82231Z" fill="#FFBD00"/>
<path d="M188.055 9.12211C187.907 9.12211 187.786 9.00328 187.784 8.85475L187.676 0.275849C187.674 0.125193 187.795 0.00212178 187.943 0C187.945 0 187.947 0 187.947 0C188.093 0 188.215 0.118827 188.217 0.269483L188.325 8.84626C188.327 8.99904 188.207 9.12211 188.059 9.12211C188.057 9.12211 188.055 9.12211 188.055 9.12211Z" fill="#FFBD00"/>
<path d="M194.122 11.5602C194.054 11.5602 193.987 11.5326 193.934 11.4817C193.826 11.3756 193.826 11.2037 193.93 11.0955L199.891 4.95467C199.997 4.84645 200.168 4.84433 200.276 4.95043C200.382 5.05652 200.384 5.2284 200.28 5.33449L194.317 11.4774C194.264 11.5305 194.194 11.5602 194.122 11.5602Z" fill="#FFBD00"/>
<path d="M182.049 11.7108C181.979 11.7108 181.912 11.6854 181.859 11.6344L175.745 5.64428C175.639 5.53818 175.637 5.36631 175.743 5.26021C175.847 5.15199 176.018 5.14987 176.126 5.25597L182.239 11.244C182.347 11.3501 182.347 11.522 182.243 11.6302C182.191 11.6832 182.119 11.7108 182.049 11.7108Z" fill="#FFBD00"/>
<path d="M74.9888 73.5625C74.9888 73.5625 75.661 77.904 75.8449 81.7298C76.4981 79.2556 77.5107 76.9449 77.5107 76.9449C77.1514 76.4568 76.1663 75.9136 76.1663 75.9136L77.0224 75.2219C76.7243 74.6235 76.3523 74.0209 76.0542 73.5646C75.7287 73.5477 75.3756 73.5434 74.9888 73.5625Z" fill="#193564"/>
<path d="M72.0105 72.0687C72.0105 72.0687 71.9027 71.6061 71.1691 70.9971C70.4335 70.3881 69.5308 68.854 70.0297 67.653C70.0297 67.653 70.4419 66.7002 71.4862 66.488C71.4862 66.488 71.9471 65.0855 73.1372 65.0897C74.3295 65.0939 75.0715 65.6732 75.5979 65.7263C76.1221 65.7814 77.4603 66.0021 77.3715 67.0482C77.2827 68.0922 75.9361 69.1468 74.765 68.3341C74.765 68.3341 74.2365 68.0073 74.3062 68.89C74.376 69.7728 74.2449 69.9807 74.2449 69.9807C74.2449 69.9807 73.894 69.1319 73.3719 69.0789C72.8455 69.0237 72.5622 69.3675 72.5855 69.7813C72.6151 70.2969 72.336 71.6273 72.0105 72.0687Z" fill="#193564"/>
<path d="M71.668 81.6746C71.7927 81.8783 71.9132 82.082 72.0252 82.2836C71.9597 82.0226 71.9026 81.7594 71.8498 81.4942C71.7906 81.5536 71.7293 81.613 71.668 81.6746Z" fill="#193564"/>
<path d="M68.7864 77.87C68.7864 77.87 69.7715 78.9649 70.7587 80.3293C71.0526 80.1129 71.3189 79.8816 71.5599 79.6418C71.3295 77.6048 71.3464 75.485 71.4521 73.4119C71.4521 73.4119 70.653 73.6177 69.6679 73.8999C69.4058 74.407 69.0718 75.0585 68.8117 75.5592L70.1626 76.2892C70.1626 76.2892 69.3783 76.8579 68.7864 77.87Z" fill="#193564"/>
<path d="M63.6832 102.892H52.1494C51.6526 102.892 51.251 103.295 51.251 103.793V104.566C51.251 105.064 51.5237 105.523 51.9613 105.76L57.2779 108.631C57.316 108.653 57.3561 108.67 57.3942 108.687V108.574C57.3942 108.283 57.6288 108.048 57.9163 108.048C58.2038 108.048 58.4385 108.283 58.4385 108.574V108.687C58.4786 108.67 58.5188 108.653 58.5547 108.631L63.8735 105.76C64.309 105.523 64.5838 105.064 64.5838 104.566V103.796C64.5838 103.295 64.1821 102.892 63.6832 102.892Z" fill="#193564"/>
<path d="M76.7963 136.078L68.0423 136.085C67.2792 136.089 66.7993 135.283 66.8649 134.952L67.072 131.881C67.2496 131.206 68.6046 131.788 69.52 131.164C70.763 130.653 70.8391 130.513 71.2429 130.606C71.9511 130.757 71.9384 131.202 71.8221 131.726C71.486 132.581 72.5831 133.311 73.2681 133.316C76.0627 133.328 78.5467 135.304 76.7963 136.078Z" fill="#193564"/>
<path d="M94.5031 124.193L86.3812 124.217C86.0493 124.215 85.5208 123.644 85.6201 123.37L86.4974 119.527C86.7321 118.976 87.7151 119.684 88.5226 119.292C89.5712 119.046 89.6494 118.938 89.9538 119.078C90.4907 119.317 90.4189 119.699 90.2519 120.132C89.8671 120.813 90.6176 121.745 91.1651 121.719C93.8921 121.592 95.9871 123.801 94.5031 124.193Z" fill="#193564"/>
<path d="M92.3574 100.562C90.7952 98.9109 84.3772 98.321 81.1851 97.4807C79.2445 98.5523 77.0544 98.9152 77.0544 98.9152C77.0544 98.9152 76.8493 97.6229 76.5343 95.8384C75.8896 95.9742 75.0651 96.1545 74.4817 96.2606C74.5472 97.0542 74.5958 97.7248 74.6297 98.2213C74.6381 98.3338 74.6445 98.4335 74.6508 98.5268C74.6529 98.5523 74.6529 98.5799 74.6571 98.6054C74.6698 98.7984 74.6783 98.9364 74.6846 99.0234C74.6888 99.0849 74.691 99.1273 74.691 99.1273C74.1012 99.1549 73.5325 99.1486 72.9829 99.121C72.799 99.1125 72.6298 99.0913 72.4502 99.0785C72.0908 99.051 71.7335 99.0191 71.3953 98.9724C71.2029 98.9449 71.0211 98.9152 70.8372 98.8833C70.5286 98.8324 70.2284 98.7772 69.9409 98.7136C69.7718 98.6754 69.6047 98.6393 69.4441 98.599C69.1629 98.529 68.8945 98.4568 68.6387 98.3826C67.3682 98.0091 66.4 97.589 65.8757 97.3301H65.8736C65.4297 99.1231 66.2668 102.2 68.497 104.192C68.7592 108.808 69.2982 113.204 69.2982 113.204C66.8608 118.053 67.1631 129.594 67.1631 129.594L71.5031 129.713C71.835 126.784 75.0313 115.814 75.063 113.077C75.0778 111.799 76.0989 108.96 76.7098 106.034C83.2695 105.771 86.9752 104.907 86.9752 104.907L86.191 118.628L90.6768 117.851C90.6789 117.851 94.3467 102.667 92.3574 100.562Z" fill="#193564"/>
<path d="M74.4076 75.4128C74.5662 75.6335 74.6106 75.816 74.6106 75.816C74.6106 75.816 74.4901 76.0897 74.3273 76.2977C74.1413 78.4429 73.3866 80.149 71.2747 82.0353C69.0614 84.0108 69.1185 86.8457 69.1629 87.8112C69.2051 88.7767 69.4694 93.2963 68.4357 95.0405C67.848 96.0294 66.7297 96.8272 65.8714 97.3301C65.7509 97.8033 65.7551 98.3762 65.7551 98.3762C65.7551 98.3762 68.1714 97.1603 69.1565 95.3885C70.1416 93.6189 69.7505 89.1056 69.6808 88.1422C69.611 87.1789 69.4736 84.3461 71.6278 82.3091C73.6889 80.3654 74.3949 78.6382 74.5218 76.4887C74.6761 76.2743 74.7924 75.9985 74.7924 75.9985C74.7924 75.9985 74.7078 75.6951 74.4076 75.4128Z" fill="#193564" fill-opacity="0.2"/>
<path d="M74.9424 73.3015L74.8917 73.293C74.8917 73.293 73.8897 73.083 73.0842 72.5016C73.0842 72.5016 73.6867 73.1615 74.9889 73.5646L74.9424 73.3015Z" fill="#193564" fill-opacity="0.2"/>
<path d="M78.7773 78.3665C78.7773 79.4848 78.4053 81.7297 78.4053 81.7297C78.4053 81.7297 78.5427 81.9483 78.7752 82.2984C78.7752 82.2942 78.7773 82.2899 78.7773 82.2836C78.9169 80.325 78.7773 78.3665 78.7773 78.3665Z" fill="#193564" fill-opacity="0.2"/>
<path d="M66.0825 84.2887C67.9534 81.7297 68.4312 80.1383 68.4312 80.1383C67.6574 81.7318 66.0085 83.5758 66.0085 83.5758C66.0085 83.5758 66.0403 83.8368 66.0825 84.2887Z" fill="#193564" fill-opacity="0.2"/>
<path fill-rule="evenodd" clip-rule="evenodd" d="M190.49 35.3384C190.239 34.9288 189.959 34.5066 189.951 34.044C189.943 33.5835 190.192 33.1549 190.439 32.7475C190.911 31.9688 191.443 31.4043 191.773 31.0903C190.627 31.8245 189.363 32.234 188.036 32.234C186.634 32.234 185.304 31.7778 184.108 30.963C184.412 31.2346 185.036 31.8478 185.581 32.7475C185.827 33.1528 186.078 33.5835 186.07 34.0419C186.061 34.5066 185.782 34.9288 185.531 35.3362C184.776 36.5627 183.924 37.2799 183.924 37.2799C183.924 38.4491 192.099 38.4491 192.099 37.2799C192.097 37.282 191.245 36.567 190.49 35.3384Z" fill="#193564" fill-opacity="0.2"/>
</svg>
